<svg xmlns="http://www.w3.org/2000/svg" version="1.1" xmlns:xlink="http://www.w3.org/1999/xlink" xmlns:svgjs="http://svgjs.com/svgjs" width="1000" height="1000"><rect width="1000" height="1000" rx="400" ry="400" fill="#59ff00"></rect><g transform="matrix(1,0,0,1,0,0)"><svg xmlns="http://www.w3.org/2000/svg" version="1.1" xmlns:xlink="http://www.w3.org/1999/xlink" xmlns:svgjs="http://svgjs.com/svgjs" width="1024.000000pt" height="1024.000000pt"><svg version="1.0" xmlns="http://www.w3.org/2000/svg" width="1024.000000pt" height="1024.000000pt" viewBox="0 0 1024.000000 1024.000000" preserveAspectRatio="xMidYMid meet">

<g transform="translate(0.000000,1024.000000) scale(0.100000,-0.100000)" fill="#000000" stroke="none">
<path d="M0 5120 l0 -5120 5120 0 5120 0 0 5120 0 5120 -5120 0 -5120 0 0
-5120z m3170 4750 c33 -17 80 -66 80 -84 0 -4 -17 5 -37 18 -46 31 -117 48
-148 36 -33 -12 -94 -68 -111 -101 -16 -32 -8 -92 20 -133 32 -49 117 -57 183
-17 32 20 103 133 103 166 0 14 3 15 15 5 8 -7 15 -20 15 -29 0 -23 -58 -121
-71 -121 -7 0 -28 -15 -49 -34 -64 -58 -157 -56 -215 4 -49 51 -47 173 4 234
61 73 138 93 211 56z m-8 -55 c7 -9 19 -22 26 -30 18 -20 15 -49 -9 -79 -32
-40 -87 -37 -139 10 -22 20 -40 41 -40 46 0 5 13 23 29 39 24 23 38 29 75 29
28 0 50 -6 58 -15z m306 -166 c122 -59 544 -253 672 -309 47 -20 147 -65 223
-99 76 -33 140 -61 143 -61 3 0 79 -34 169 -75 89 -41 165 -75 169 -75 9 0
270 -121 283 -132 13 -10 3 -39 -29 -81 -15 -20 9 -29 -353 135 -60 27 -166
74 -235 104 -69 31 -233 109 -366 174 -133 65 -319 156 -415 200 -96 45 -178
86 -184 92 -5 5 8 2 30 -7 114 -49 156 -65 167 -65 10 0 -225 111 -292 137
-25 10 -8 -4 40 -32 51 -31 43 -29 -54 11 -58 24 -65 30 -45 35 22 5 22 7 -15
22 -21 10 -45 17 -53 17 -11 0 -11 6 4 30 9 17 21 30 26 30 4 0 56 -23 115
-51z m-418 11 c0 -5 -6 -10 -14 -10 -8 0 -18 5 -21 10 -3 6 3 10 14 10 12 0
21 -4 21 -10z m701 -293 c163 -80 374 -184 469 -232 95 -47 196 -95 224 -106
28 -11 115 -52 194 -90 79 -38 164 -78 190 -88 69 -28 214 -107 240 -132 13
-11 25 -19 26 -18 1 2 13 30 25 62 29 70 94 147 111 131 13 -13 5 -33 -67
-155 l-45 -76 -97 54 c-53 30 -116 63 -141 75 -166 75 -470 221 -735 353 -321
160 -655 322 -785 382 -83 39 -102 51 -95 64 6 9 73 -22 486 -224z m1894 -689
c88 -39 223 -96 300 -128 77 -32 208 -87 290 -122 83 -36 168 -71 190 -78 22
-7 85 -33 140 -57 119 -53 547 -223 625 -248 30 -10 127 -49 215 -86 87 -38
165 -69 173 -69 25 0 165 -52 234 -86 51 -26 88 -36 160 -44 50 -6 104 -13
118 -16 39 -8 100 -36 100 -46 0 -15 -536 -16 -552 0 -18 18 14 34 78 40 49 4
62 7 47 13 -33 12 -140 22 -125 11 20 -13 -24 -23 -70 -15 -32 5 -38 10 -38
29 0 13 9 33 20 44 12 12 18 26 14 32 -5 7 -12 5 -21 -8 -12 -16 -16 -17 -36
-5 -20 13 -21 13 -8 -3 11 -13 12 -22 2 -42 -6 -14 -15 -24 -19 -22 -4 2 -41
19 -82 39 -83 41 -326 135 -380 148 -43 11 -193 64 -200 71 -3 3 -9 5 -15 5
-23 0 -128 42 -250 98 -134 61 -151 69 -415 180 -85 36 -200 88 -255 115 -153
76 -394 183 -595 264 -41 17 -77 32 -78 33 -2 2 8 30 23 63 l27 60 111 -50
c62 -27 184 -82 272 -120z m-296 -83 c88 -41 164 -75 167 -75 4 0 88 -38 188
-84 99 -46 244 -112 321 -146 77 -34 196 -90 265 -125 69 -34 157 -76 195 -93
39 -17 162 -73 275 -123 113 -51 295 -128 405 -173 215 -87 315 -139 280 -144
-11 -1 -61 16 -110 38 -49 23 -143 63 -209 89 -67 27 -218 93 -336 149 -118
55 -262 119 -319 142 -58 23 -143 62 -190 85 -48 24 -149 71 -226 105 -77 34
-162 74 -190 89 -27 16 -106 52 -175 81 -282 118 -541 240 -534 252 10 15 32
8 193 -67z m363 -264 c24 -7 59 -26 78 -43 31 -26 32 -29 10 -22 -14 5 -887 7
-1940 6 -1648 -3 -1924 -5 -1981 -18 -126 -28 -259 -129 -311 -236 -14 -29
-40 -118 -58 -198 -28 -126 -32 -171 -37 -342 -6 -195 -6 -196 -30 -207 -13
-6 -26 -11 -28 -11 -9 0 -5 310 5 437 19 228 69 371 163 463 98 96 190 146
319 172 92 18 3745 17 3810 -1z m2814 -16 c156 -40 251 -98 338 -208 47 -59
101 -183 121 -276 19 -89 35 -300 35 -453 0 -107 -2 -118 -18 -118 -37 0 -42
20 -42 160 -1 415 -83 649 -265 756 -63 36 -160 71 -237 84 -40 7 -371 13
-893 16 -518 3 -845 9 -870 15 -69 18 -127 42 -116 49 6 3 426 4 933 2 l923
-4 91 -23z m-2343 -302 c-13 -2 -33 -2 -45 0 -13 2 -3 4 22 4 25 0 35 -2 23
-4z m-4373 -116 c0 -2 -9 -12 -20 -22 -24 -21 -27 -14 -4 9 15 15 24 20 24 13z
m-210 -107 c0 -5 -4 -10 -10 -10 -5 0 -10 5 -10 10 0 6 5 10 10 10 6 0 10 -4
10 -10z m6757 -175 c46 -7 94 -20 108 -29 24 -16 25 -20 25 -131 0 -70 -4
-115 -10 -115 -6 0 -10 40 -10 99 0 113 -4 131 -31 131 -17 0 -19 -9 -20 -112
l-2 -113 -9 110 c-5 60 -12 113 -16 116 -4 4 -20 9 -37 11 l-30 3 2 -117 c1
-71 -2 -118 -7 -118 -6 0 -10 33 -10 74 0 40 -3 94 -6 120 -6 44 -8 46 -40 46
l-34 0 0 -124 c0 -101 -3 -125 -15 -130 -13 -5 -15 12 -15 114 0 94 -3 122
-16 134 -37 38 -43 22 -46 -116 l-3 -131 -27 -1 -28 -2 0 127 c0 69 -3 128 -6
132 -3 3 -12 3 -20 0 -11 -4 -14 -33 -14 -135 l0 -129 -32 3 -33 3 -3 128 c-2
104 -5 127 -17 127 -12 0 -15 -22 -15 -131 0 -115 -2 -130 -16 -125 -9 3 -24
6 -35 6 -18 0 -19 9 -19 130 0 109 -2 130 -15 130 -13 0 -15 -21 -15 -130 l0
-130 -35 0 -35 0 0 125 c0 104 -2 125 -15 125 -13 0 -15 -21 -15 -125 l0 -125
-29 0 c-17 0 -31 6 -35 16 -3 9 -6 66 -6 127 0 79 -3 108 -11 100 -6 -6 -11
-59 -12 -124 -2 -103 -4 -114 -21 -117 -30 -6 -36 17 -35 118 1 52 -2 97 -7
100 -5 3 -10 -46 -12 -107 -3 -113 -3 -113 -27 -113 -25 0 -25 0 -25 105 0 81
-3 103 -13 99 -9 -3 -12 -29 -9 -104 4 -97 4 -100 -17 -100 -22 0 -22 3 -20
111 l3 110 31 13 c33 14 152 43 200 49 75 10 586 4 662 -8z m-6836 -122 c-9
-15 -10 -13 -11 13 0 17 3 34 8 38 11 12 14 -32 3 -51z m-4 -75 c-2 -13 -4 -5
-4 17 -1 22 1 32 4 23 2 -10 2 -28 0 -40z m7239 -160 c207 -35 422 -140 568
-277 125 -118 198 -241 273 -459 l37 -107 7 -805 c7 -886 4 -3439 -6 -3590
-14 -234 -63 -364 -212 -571 -66 -92 -127 -151 -228 -219 -139 -93 -276 -155
-380 -172 -32 -5 -64 -13 -71 -18 -6 -6 -14 -7 -17 -3 -9 8 -79 11 -92 3 -5
-4 -30 -2 -55 4 l-45 10 75 7 c96 9 302 70 394 116 174 87 274 170 386 318 98
129 179 345 201 529 7 61 9 788 7 2211 -4 2380 4 2141 -82 2349 -67 162 -169
298 -306 408 -92 74 -353 194 -404 186 -16 -3 -11 -7 19 -17 51 -17 132 -64
118 -68 -5 -2 -50 10 -99 26 -157 52 -235 59 -764 73 -63 2 -46 4 65 8 128 5
103 6 -175 10 -563 8 -602 8 -634 -13 -23 -15 -41 -18 -104 -13 -119 8 -119 8
-82 16 21 4 -40 8 -146 9 -99 0 -183 -2 -186 -5 -4 -3 -53 -5 -110 -3 -56 1
-292 2 -523 3 -301 2 -359 0 -205 -4 140 -4 84 -5 -160 -3 -206 2 -465 6 -575
8 -110 2 -189 0 -175 -4 37 -11 -95 -24 -162 -16 -29 3 -154 8 -278 11 -124 2
-241 5 -260 5 -19 0 -156 -1 -305 -4 -148 -2 -274 -1 -280 2 -5 3 -75 3 -155
-2 -80 -4 -527 -10 -994 -12 -787 -5 -851 -4 -875 12 -25 16 -25 16 -12 -1 13
-16 10 -17 -52 -12 -37 2 -69 0 -72 -5 -4 -5 2 -6 12 -4 10 3 8 0 -4 -6 -13
-7 -23 -15 -23 -19 0 -4 -17 -11 -37 -15 -21 -5 -42 -9 -48 -10 -5 -2 -45 -17
-88 -36 -59 -24 -81 -29 -86 -20 -6 9 -11 8 -21 -4 -9 -11 -9 -15 -1 -15 7 0
9 -5 5 -12 -6 -9 -9 -9 -12 0 -6 19 -25 14 -55 -13 -39 -37 -34 -51 7 -20 19
14 37 22 39 18 3 -5 -21 -26 -53 -47 -71 -47 -160 -133 -160 -155 0 -12 4 -11
18 6 31 39 163 143 229 179 79 45 175 78 272 95 40 7 79 19 86 26 9 8 16 9 20
3 10 -16 28 -12 21 5 -5 13 -2 14 17 4 12 -6 23 -13 25 -14 2 -1 -34 -13 -79
-25 -45 -12 -89 -26 -98 -30 -9 -5 -43 -16 -76 -26 -70 -20 -85 -30 -85 -55 0
-11 -4 -19 -10 -19 -5 0 -7 7 -3 17 6 14 3 14 -25 -3 -41 -24 -42 -44 -2 -38
17 3 30 2 29 -3 0 -4 -33 -33 -73 -64 -92 -71 -207 -201 -244 -276 -43 -85
-73 -185 -82 -266 l-7 -72 -4 90 c-5 144 -4 214 2 204 3 -5 11 9 18 32 7 22
15 48 18 58 4 11 1 11 -11 -4 -16 -19 -16 -19 -7 5 4 14 11 23 14 20 3 -3 20
17 38 43 17 27 42 55 55 64 13 8 22 19 19 23 -3 4 2 10 9 13 8 3 20 16 27 28
l11 22 -28 -21 c-55 -41 -61 -47 -68 -67 -9 -27 -65 -93 -66 -77 0 7 5 22 10
33 7 13 7 19 0 19 -5 0 -10 -5 -10 -11 0 -12 -11 -23 -69 -69 -24 -18 -50 -50
-58 -69 -9 -20 -20 -47 -26 -61 -11 -27 -14 -94 -17 -292 -1 -127 -1 -128 -24
-128 -23 0 -23 -2 -29 -142 -4 -79 -7 -998 -9 -2043 -1 -1760 0 -1908 16
-2009 19 -118 48 -202 125 -353 80 -159 170 -250 348 -350 59 -33 140 -72 178
-86 79 -28 288 -77 329 -77 16 0 25 -4 21 -10 -3 -5 3 -10 15 -10 13 0 19 4
14 12 -4 7 -3 8 5 4 6 -4 9 -11 6 -16 -7 -11 -88 -9 -96 3 -4 5 -19 2 -36 -6
-26 -14 -34 -14 -83 2 -30 10 -91 26 -135 36 -203 46 -502 264 -614 449 -55
92 -110 239 -136 363 l-24 118 0 2140 c-1 2317 -3 2241 52 2400 117 338 350
564 707 686 84 28 113 33 245 39 83 4 1666 7 3519 6 3146 -1 3376 -2 3472 -18z
m-1748 -75 c-10 -2 -26 -2 -35 0 -10 3 -2 5 17 5 19 0 27 -2 18 -5z m-5498
-167 c0 -2 -7 -9 -15 -16 -13 -11 -14 -10 -9 4 5 14 24 23 24 12z m7648 -51
c18 -9 30 -21 26 -26 -3 -5 -2 -9 3 -8 30 5 48 -17 33 -40 -5 -9 -21 -1 -56
31 -27 23 -61 51 -74 60 l-25 17 30 -9 c17 -4 45 -16 63 -25z m-7400 13 c-4
-12 -15 -19 -58 -35 -118 -46 -222 -108 -294 -174 -68 -62 -73 -53 -10 19 26
29 45 55 42 57 -2 2 -32 -23 -66 -57 -74 -73 -131 -157 -201 -295 -28 -56 -55
-104 -61 -108 -5 -3 3 30 18 73 71 200 196 352 359 436 159 80 282 119 271 84z
m7062 -48 c0 -5 -2 -10 -4 -10 -3 0 -8 5 -11 10 -3 6 -1 10 4 10 6 0 11 -4 11
-10z m434 -62 c-3 -4 -9 -8 -15 -8 -5 0 -9 4 -9 8 0 5 7 9 15 9 8 0 12 -4 9
-9z m-942 -8 c122 -17 185 -37 303 -95 216 -107 324 -215 430 -429 37 -76 76
-173 92 -231 l27 -100 3 -1735 c2 -1035 -1 -1791 -7 -1875 -15 -224 -56 -348
-173 -525 -126 -192 -303 -324 -527 -392 l-75 -23 -3090 -3 c-2136 -2 -3125 0
-3203 8 -133 12 -243 45 -362 106 -83 43 -205 140 -267 214 -57 68 -143 216
-174 300 -65 176 -61 58 -66 2042 -5 2007 -8 1916 60 2097 54 144 121 250 224
356 168 173 362 272 558 284 172 11 6165 12 6247 1z m732 -79 c-2 -3 -12 3
-22 13 -16 17 -16 18 5 5 12 -7 20 -15 17 -18z m-7761 -139 c-26 -39 -49 -69
-51 -67 -2 2 5 16 16 32 10 15 31 47 47 71 15 23 30 41 32 39 2 -2 -18 -36
-44 -75z m-276 -174 c-3 -8 -6 -5 -6 6 -1 11 2 17 5 13 3 -3 4 -12 1 -19z m13
-54 c0 -8 -4 -14 -10 -14 -5 0 -10 9 -10 21 0 11 5 17 10 14 6 -3 10 -13 10
-21z m8477 -1566 c-3 -7 -5 -2 -5 12 0 14 2 19 5 13 2 -7 2 -19 0 -25z m-7169
-3796 c7 -5 -33 -9 -90 -9 -70 -1 -92 1 -68 7 48 10 142 11 158 2z m4527 -2
c-3 -5 1 -10 9 -10 8 0 18 5 21 10 7 12 25 4 25 -11 0 -11 -190 -12 -217 -1
-12 4 4 9 47 13 110 10 121 9 115 -1z m315 0 c19 -12 -193 -12 -230 0 -16 5
20 8 95 9 66 0 127 -4 135 -9z m955 -5 c-23 -11 -90 -14 -281 -15 -258 0 -356
6 -332 21 7 5 155 8 328 8 275 -1 311 -2 285 -14z m-782 -12 c-13 -2 -35 -2
-50 0 -16 2 -5 4 22 4 28 0 40 -2 28 -4z m130 0 c-7 -2 -19 -2 -25 0 -7 3 -2
5 12 5 14 0 19 -2 13 -5z m1213 -157 l-15 -36 -602 0 c-482 0 -601 3 -591 13
10 9 145 13 587 15 433 3 575 6 575 15 0 7 12 37 27 67 l28 55 3 -47 c2 -26
-4 -62 -12 -82z m-6915 54 c16 -27 40 -52 52 -56 12 -4 209 -7 437 -6 417 2
651 -6 545 -19 -27 -3 -277 -5 -555 -5 l-505 1 -27 50 c-35 64 -36 85 -3 85
19 0 32 -11 56 -50z"></path>
<path d="M8715 7190 c3 -6 20 -10 37 -10 38 0 34 5 -10 13 -21 4 -31 3 -27 -3z"></path>
<path d="M1194 6958 l-19 -23 25 20 c14 11 27 21 29 22 2 2 0 3 -6 3 -5 0 -18
-10 -29 -22z"></path>
<path d="M1287 6924 c-3 -3 -3 -13 0 -21 3 -8 -6 -27 -22 -43 -14 -15 -23 -30
-18 -33 14 -9 74 70 67 87 -6 17 -16 20 -27 10z"></path>
<path d="M1350 6919 c0 -5 5 -7 10 -4 6 3 10 8 10 11 0 2 -4 4 -10 4 -5 0 -10
-5 -10 -11z"></path>
<path d="M1057 6812 c-10 -10 -17 -23 -17 -29 0 -6 -6 -14 -12 -16 -10 -4 -10
-6 -1 -6 7 -1 17 8 23 19 6 11 15 18 21 15 5 -4 9 3 9 14 0 26 -2 26 -23 3z"></path>
<path d="M1086 6783 c-9 -22 -3 -25 19 -10 15 12 16 15 2 20 -9 3 -18 -1 -21
-10z"></path>
<path d="M1201 6765 c-33 -38 -41 -56 -16 -35 18 15 59 70 52 70 -3 0 -19 -16
-36 -35z"></path>
<path d="M1045 6490 c-4 -23 -5 -43 -2 -46 2 -3 7 14 11 37 4 23 5 44 2 46 -2
2 -7 -14 -11 -37z"></path>
<path d="M840 6156 c0 -17 5 -26 16 -26 10 0 14 7 12 22 -5 32 -28 35 -28 4z"></path>
<path d="M2175 6779 c-227 -7 -257 -14 -400 -87 -75 -39 -107 -64 -190 -148
-151 -153 -223 -286 -264 -491 -20 -96 -20 -142 -21 -1903 -2 -2026 -6 -1901
72 -2077 79 -182 195 -319 358 -425 80 -52 213 -99 330 -118 75 -11 1034 -13
1064 -1 45 17 -18 26 -232 31 -122 3 -309 1 -415 -4 -332 -16 -470 2 -657 87
-148 67 -294 226 -385 420 -68 144 -65 54 -65 2064 0 2002 -4 1874 65 2060 48
128 75 174 165 279 115 135 244 208 417 239 79 15 400 16 3123 17 2135 0 3068
-4 3147 -11 138 -14 213 -37 323 -98 193 -109 339 -319 400 -577 18 -75 19
-155 21 -1925 l1 -1846 -32 -100 c-63 -195 -144 -317 -291 -437 -59 -48 -189
-113 -269 -133 -77 -20 -222 -24 -228 -7 -2 7 -8 12 -13 12 -6 0 -8 -4 -5 -9
10 -16 -19 -19 -198 -21 -98 0 -199 -5 -225 -10 -53 -10 -1077 -15 -1181 -6
-36 3 -141 8 -233 11 -92 2 -172 7 -178 11 -6 4 -15 0 -20 -7 -8 -14 -466 -17
-1514 -12 -571 3 -1258 -8 -1246 -20 11 -11 592 -14 2781 -15 201 -1 754 -1
1229 -1 920 -1 956 1 1082 48 78 30 233 122 295 176 126 108 234 297 259 450
9 50 20 115 25 145 12 69 12 3231 0 3530 -8 200 -10 221 -38 300 -16 47 -39
105 -52 130 -72 143 -199 282 -327 357 -75 44 -191 93 -221 93 -10 0 -22 3
-26 7 -9 9 -32 13 -83 14 -24 0 -43 4 -43 9 0 10 -5795 8 -6105 -1z m1713 -6
c-21 -2 -55 -2 -75 0 -21 2 -4 4 37 4 41 0 58 -2 38 -4z m285 0 c-7 -2 -19 -2
-25 0 -7 3 -2 5 12 5 14 0 19 -2 13 -5z"></path>
<path d="M2090 6682 c-145 -13 -291 -79 -403 -182 -135 -125 -200 -238 -255
-440 l-26 -95 -3 -1790 c-2 -1211 0 -1819 7 -1879 30 -254 232 -510 481 -610
178 -72 125 -68 1024 -66 1354 3 3030 3 4215 0 1167 -2 1194 -2 1313 39 125
43 261 137 341 234 85 104 157 263 186 410 8 42 12 554 13 1855 l2 1797 -23
84 c-35 127 -67 205 -115 279 -120 185 -269 297 -462 348 -68 18 -179 19
-3165 19 -1702 0 -3111 -1 -3130 -3z m858 -189 c-10 -2 -26 -2 -35 0 -10 3 -2
5 17 5 19 0 27 -2 18 -5z m1941 -29 c2 -2 -7 -4 -22 -4 -14 0 -29 5 -32 10 -6
10 42 4 54 -6z m166 6 c4 -6 -10 -10 -34 -10 -23 0 -41 5 -41 10 0 6 15 10 34
10 19 0 38 -4 41 -10z m78 -7 c-7 -2 -19 -2 -25 0 -7 3 -2 5 12 5 14 0 19 -2
13 -5z m2460 0 c-29 -2 -77 -2 -105 0 -29 2 -6 3 52 3 58 0 81 -1 53 -3z m355
0 c-54 -2 -142 -2 -195 0 -54 1 -10 3 97 3 107 0 151 -2 98 -3z m-2811 -120
c-3 -10 -5 -2 -5 17 0 19 2 27 5 18 2 -10 2 -26 0 -35z m158 -32 c9 -2 153 -1
368 2 53 1 97 -1 97 -5 0 -12 -53 -17 -205 -18 -82 0 -157 -1 -165 -1 -8 0
-98 0 -199 0 -101 1 -194 -2 -207 -5 -19 -5 -24 -2 -24 12 0 18 11 19 163 18
89 0 167 -2 172 -3z m1235 -11 l75 -3 -99 -7 c-54 -5 -112 -4 -130 1 -17 5
-147 6 -292 2 -144 -3 -270 -2 -280 3 -41 19 267 20 726 4z m1350 11 c0 -10
-285 -24 -505 -25 -168 0 -279 10 -258 22 16 10 763 13 763 3z m609 -4 c35 -1
66 -6 68 -12 2 -6 -33 -9 -94 -8 -379 9 -528 15 -540 21 -11 7 347 6 566 -1z
m-1644 -7 c4 -7 -24 -9 -79 -8 -46 1 -82 6 -80 10 7 12 152 10 159 -2z m-175
-78 c0 -14 -3 -22 -7 -19 -3 4 -15 -5 -25 -20 -22 -34 -23 -50 -3 -33 8 7 15
19 15 26 0 8 4 14 9 14 5 0 7 -9 4 -20 -5 -19 0 -20 116 -20 109 0 123 2 138
20 10 11 23 20 30 20 7 0 13 9 13 20 0 28 -18 25 -32 -5 -12 -27 -38 -34 -38
-10 0 45 62 105 79 76 5 -7 9 -45 10 -84 2 -71 1 -72 -28 -85 -32 -14 -56 -8
-45 10 5 8 1 9 -12 4 -10 -4 -81 -9 -157 -11 -76 -3 -142 -7 -147 -10 -5 -3
-11 -1 -15 5 -4 6 -68 10 -165 10 -97 0 -161 -4 -165 -10 -14 -22 -25 4 -25
56 0 47 -3 54 -19 54 -19 0 -39 -35 -27 -47 3 -4 6 -1 6 6 0 7 5 9 10 6 14 -9
12 -45 -2 -45 -7 0 -5 -5 5 -11 26 -15 20 -29 -13 -29 l-30 0 0 68 0 69 46 10
46 11 14 -34 c8 -18 14 -38 14 -43 0 -12 55 -19 175 -20 96 -1 100 0 123 26
l23 27 -21 8 c-33 12 -21 42 18 46 21 2 32 9 32 19 0 13 5 12 25 -7 14 -13 25
-35 25 -48z m407 31 c10 -15 17 -44 17 -65 l-1 -38 125 0 c120 0 125 -1 109
-17 -15 -15 -38 -18 -127 -19 -60 -1 -113 -5 -119 -9 -7 -3 -25 -4 -41 0 -29
6 -30 9 -30 61 0 54 21 114 40 114 5 0 17 -12 27 -27z m958 -14 c440 -110 688
-587 520 -1005 -72 -181 -225 -338 -400 -411 -182 -76 -427 -81 -610 -11 -103
39 -179 94 -284 203 -66 69 -91 104 -120 168 -63 137 -76 195 -75 342 1 119 3
137 32 219 101 285 306 462 597 515 72 13 247 3 340 -20z m-1925 -53 c4 -38 1
-64 -7 -75 -7 -9 -13 -24 -13 -33 0 -28 -20 -21 -20 7 l0 25 -115 2 c-63 1
-132 2 -152 3 -38 0 -38 -1 -44 -45 l-5 -45 -5 42 -4 42 -363 5 c-199 3 -367
8 -372 11 -6 3 -10 12 -10 20 0 11 25 13 138 9 75 -3 139 -6 142 -6 3 -1 12 2
22 6 9 4 111 6 227 4 116 -2 211 0 211 3 0 3 -7 14 -15 25 -24 32 -18 41 28
40 36 -1 42 -4 45 -23 4 -28 -5 -29 -31 -5 -19 16 -19 16 -12 -8 11 -38 29
-54 51 -42 19 9 156 8 227 -3 33 -5 38 -3 47 21 13 33 13 34 -5 34 -9 0 -15
10 -15 26 0 21 4 25 23 22 19 -3 23 -10 27 -62z m2349 -36 c50 0 57 -2 57 -20
0 -16 -7 -20 -36 -20 -54 0 -110 19 -110 37 0 10 6 13 16 9 9 -3 41 -6 73 -6z
m-5457 -87 c2 -49 1 -117 -3 -153 l-6 -65 -1 76 c-1 42 -5 110 -8 152 -5 50
-3 77 3 77 6 0 12 -37 15 -87z m72 41 c3 -26 6 -94 6 -151 0 -92 -2 -104 -16
-99 -9 3 -22 6 -30 6 -11 0 -14 26 -14 145 l0 145 24 0 c20 0 24 -6 30 -46z
m-124 17 c-5 -11 -15 -22 -22 -24 -7 -3 -2 -6 10 -6 55 -2 8 -27 -104 -56
-157 -40 -288 -102 -365 -173 -17 -15 -29 -20 -33 -13 -17 26 36 76 139 130
33 17 49 29 35 25 -44 -12 -104 -45 -152 -86 -47 -38 -68 -42 -68 -12 0 8 5
12 10 9 6 -4 36 14 67 39 30 25 88 62 128 82 82 40 282 103 333 104 29 0 32
-2 22 -19z m292 -6 c151 -37 280 -103 418 -214 107 -86 199 -189 182 -205 -18
-19 -94 5 -121 38 -7 9 -17 14 -21 11 -6 -4 -23 95 -17 101 1 2 22 -15 45 -36
23 -22 42 -35 42 -31 0 12 -109 111 -122 111 -6 0 -7 -7 -3 -17 13 -30 17
-596 7 -808 l-10 -200 -37 -85 c-37 -83 -100 -174 -167 -237 -75 -72 -232
-143 -315 -143 -19 0 -42 -4 -52 -9 -11 -6 -55 -6 -117 -1 -85 8 -110 15 -182
50 -158 78 -316 266 -363 432 -23 81 -24 92 -25 543 -1 253 2 435 6 405 5 -30
8 -213 9 -407 2 -554 18 -619 202 -808 143 -147 244 -194 415 -195 187 0 286
40 419 174 114 113 170 214 185 328 25 198 20 1020 -6 960 l-10 -23 -44 39
c-81 70 -195 120 -384 168 -38 10 -64 20 -58 22 7 2 51 -6 98 -18 48 -11 88
-19 90 -17 2 2 -41 16 -95 31 -77 22 -100 32 -104 48 -5 18 -2 19 36 13 23 -3
68 -13 99 -20z m5506 19 c90 -11 57 -24 -45 -17 -128 8 -173 21 -78 22 39 0
94 -2 123 -5z m-3065 -144 c106 0 90 -16 -25 -26 -61 -5 -88 -3 -88 4 0 6 5
14 10 17 6 3 11 18 11 33 l2 27 4 -27 c4 -28 5 -28 86 -28z m1089 28 c-7 -7
-12 -8 -12 -2 0 14 12 26 19 19 2 -3 -1 -11 -7 -17z m-4374 -43 c-20 -14 -40
-25 -45 -25 -11 0 60 49 72 50 5 0 -7 -11 -27 -25z m3752 12 c80 0 170 2 200
3 30 2 150 2 267 1 196 -1 213 -3 237 -22 21 -17 26 -29 26 -65 0 -29 -6 -50
-19 -63 -18 -18 -15 -18 100 -13 106 4 119 3 119 -12 0 -27 -44 -36 -180 -36
-112 0 -130 -2 -139 -17 -9 -17 -10 -17 -16 -1 -6 16 -37 18 -416 17 -354 0
-411 -2 -416 -15 -5 -13 -8 -13 -24 2 -11 9 -25 14 -35 10 -25 -10 -32 10 -27
73 5 59 21 102 39 108 25 8 56 -33 61 -80 l6 -47 57 0 c31 0 105 -3 164 -7
l107 -6 -6 26 c-6 22 -3 28 19 37 30 11 33 22 11 40 -8 7 -15 18 -15 25 0 9
-45 14 -167 19 -262 12 -317 16 -326 25 -4 4 45 5 110 2 65 -3 183 -5 263 -4z
m-713 -9 c4 -7 7 -48 6 -90 -1 -61 2 -78 13 -78 11 0 14 17 14 72 0 75 15 108
50 108 15 0 19 -14 25 -85 l7 -85 66 1 c37 1 79 4 95 8 l28 6 -19 37 c-24 46
-13 68 34 68 39 0 40 -1 48 -92 l6 -66 -31 -16 c-39 -19 -39 -19 -39 -2 0 11
-27 14 -137 15 -76 0 -223 5 -328 10 -104 5 -193 7 -198 4 -14 -8 -47 8 -47
24 0 13 26 14 190 12 104 -2 193 0 197 4 4 4 -4 6 -18 5 -18 -2 -25 2 -27 20
-3 19 1 22 28 22 21 0 30 4 27 13 -2 7 -17 11 -36 9 -34 -2 -37 4 -17 30 9 13
16 14 24 6 6 -6 15 -8 19 -5 4 4 -1 15 -11 25 -16 16 -18 16 -36 -5 -22 -28
-30 -29 -30 -3 0 10 8 24 18 29 24 14 69 13 79 -1z m1656 2 c80 0 88 -2 77
-15 -14 -17 -54 -18 -207 -8 -65 5 -83 9 -83 21 0 12 11 14 61 8 34 -3 102 -6
152 -6z m-1808 -21 c-8 -11 -72 -12 -79 0 -3 4 5 7 18 6 13 -2 29 1 37 5 15
10 32 3 24 -11z m3475 11 l95 -3 -135 -8 c-135 -9 -185 -6 -176 10 5 8 23 8
216 1z m-6440 -54 c0 -2 -8 -10 -17 -17 -16 -13 -17 -12 -4 4 13 16 21 21 21
13z m41 -49 c-3 -56 -16 -107 -27 -107 -11 0 -61 18 -73 27 -8 5 83 93 92 90
5 -1 8 -6 8 -10z m244 3 c-3 -5 -16 -10 -28 -10 -18 0 -19 2 -7 10 20 13 43
13 35 0z m710 -40 c230 0 305 -5 305 -19 0 -5 -438 -5 -1204 -1 -6 0 -6 3 0 9
13 14 83 16 389 14 149 -2 378 -3 510 -3z m-1085 -3 c0 -2 -15 -16 -32 -33
l-33 -29 29 33 c28 30 36 37 36 29z m6589 -13 c109 -12 64 -25 -76 -22 -98 2
-138 6 -141 16 -4 14 109 17 217 6z m-5803 -71 c-1 -17 -6 -23 -21 -21 -12 2
-20 -3 -20 -12 0 -10 8 -14 23 -13 20 3 22 -2 24 -45 l2 -47 3 49 c4 45 6 48
29 43 13 -2 24 0 24 4 0 5 7 9 15 9 19 0 22 -88 3 -95 -13 -5 -151 -24 -155
-21 -1 1 1 45 4 97 l6 96 32 -10 c26 -8 32 -15 31 -34z m478 7 c20 -130 20
-128 -5 -133 -13 -2 -4 -4 21 -4 25 -1 37 1 28 4 -10 2 -18 12 -19 21 0 9 -2
36 -5 60 -5 34 -3 42 10 42 9 0 16 5 16 10 0 6 -7 10 -15 10 -8 0 -15 5 -15
10 0 6 14 10 30 10 38 0 46 -19 52 -117 l4 -73 -61 0 c-74 0 -113 9 -93 21 10
7 10 9 0 9 -9 0 -12 23 -11 85 l1 85 29 -2 c24 -2 29 -7 33 -38z m-1216 19
c33 -11 47 -42 31 -70 -13 -26 -11 -33 6 -19 12 10 15 10 15 -3 0 -8 6 -17 13
-20 6 -2 8 -8 4 -13 -4 -5 -11 -4 -15 2 -4 6 -23 16 -42 23 -19 6 -48 23 -64
37 l-28 25 23 25 c12 13 23 24 24 24 1 0 16 -5 33 -11z m250 -11 c-2 -16 3
-22 20 -23 12 -1 22 2 22 7 0 4 -7 8 -15 8 -8 0 -15 7 -15 15 0 22 50 20 50
-2 1 -16 2 -16 15 1 11 15 15 16 15 5 0 -8 -4 -19 -9 -24 -5 -6 -12 -21 -16
-35 -7 -22 -6 -23 9 -11 24 20 32 5 10 -21 -10 -12 -13 -18 -6 -14 10 6 13 0
10 -28 -2 -20 -6 -36 -10 -36 -5 0 -40 0 -79 0 -56 0 -69 3 -62 13 6 6 13 20
16 29 5 15 4 16 -13 6 -28 -18 -50 4 -27 26 17 18 42 22 32 6 -3 -5 -1 -10 4
-10 6 0 11 6 11 14 0 11 10 13 40 9 33 -5 40 -3 40 11 0 12 -6 16 -17 13 -10
-3 -36 -8 -58 -11 -39 -6 -40 -6 -15 9 l25 15 -30 -5 c-16 -3 -24 -2 -17 1 13
6 17 34 4 34 -4 0 -13 -5 -20 -12 -7 -7 -12 -8 -12 -2 0 20 25 34 63 34 34 0
38 -3 35 -22z m108 -13 c-6 -24 -26 -36 -26 -15 0 6 5 10 10 10 6 0 10 10 10
22 0 12 3 19 6 15 4 -3 4 -18 0 -32z m474 0 c0 -22 -4 -25 -40 -25 -36 0 -40
3 -40 25 0 23 4 25 40 25 36 0 40 -2 40 -25z m587 -47 c-3 -8 -6 -5 -6 6 -1
11 2 17 5 13 3 -3 4 -12 1 -19z m-1430 -42 c29 -14 60 -26 69 -26 10 0 14 -3
11 -7 -4 -3 0 -15 10 -25 21 -23 0 -24 -26 0 -10 9 -49 35 -85 57 -36 22 -66
44 -66 49 0 5 8 2 18 -6 9 -9 40 -27 69 -42z m1581 21 c-13 -13 -78 -40 -78
-32 0 6 72 44 83 45 5 0 2 -6 -5 -13z m-1738 -17 c-6 -11 -13 -20 -16 -20 -2
0 0 9 6 20 6 11 13 20 16 20 2 0 0 -9 -6 -20z m1643 14 c9 -9 -15 -30 -43 -38
-21 -6 -21 -4 5 10 27 16 28 18 10 25 -19 7 -19 8 1 8 11 1 23 -2 27 -5z
m-1499 -64 c47 -27 89 -50 94 -50 5 0 12 -9 15 -20 7 -27 1 -26 -89 15 -108
49 -144 73 -137 91 8 23 27 17 117 -36z m1636 36 c0 -8 -7 -16 -15 -20 -8 -3
-15 -13 -15 -21 0 -9 4 -14 10 -10 17 10 46 -30 78 -106 30 -73 85 -249 79
-255 -4 -4 -77 13 -83 19 -3 3 -12 33 -20 67 -8 34 -34 101 -59 148 -25 47
-43 87 -41 90 6 5 80 -139 123 -238 18 -41 32 -69 33 -62 0 7 -18 57 -40 110
-76 182 -91 210 -122 223 -15 6 -28 14 -28 18 0 6 75 46 93 49 4 1 7 -4 7 -12z
m1196 0 c18 -14 17 -15 -11 -12 -38 5 -37 4 -30 16 8 14 18 13 41 -4z m1274 4
c0 -21 -113 -40 -124 -21 -3 5 -25 5 -48 1 -24 -4 -117 -8 -207 -9 -174 -2
-211 -6 -211 -25 0 -6 -5 -3 -11 7 -11 18 -25 19 -213 17 -63 -1 -159 11 -151
18 3 4 30 9 58 13 80 9 907 8 907 -1z m123 0 c42 0 26 -12 -20 -16 -21 -1 -44
-4 -52 -6 -8 -1 -17 6 -19 16 -3 16 0 18 28 12 18 -3 46 -6 63 -6z m544 -7 c6
-16 -6 -21 -57 -24 -25 -2 -48 -8 -52 -14 -5 -6 -8 -3 -8 8 0 16 -11 17 -135
13 -93 -3 -135 -1 -132 7 1 5 27 11 55 12 29 1 54 4 56 6 3 2 64 4 137 4 90 0
134 -4 136 -12z m1782 -3 c41 0 71 -3 67 -7 -10 -10 -206 -11 -206 -2 0 11 23
18 45 14 11 -3 53 -5 94 -5z m-6728 -33 c-10 -9 -11 -8 -5 6 3 10 9 15 12 12
3 -3 0 -11 -7 -18z m1699 -13 c0 -17 -24 -24 -64 -17 -22 3 -36 11 -36 20 0
10 12 13 50 12 31 -2 50 -7 50 -15z m-1528 -58 c54 -25 102 -46 108 -46 5 0
10 -4 10 -10 0 -16 -17 -12 -138 36 -136 54 -134 53 -127 63 9 15 49 3 147
-43z m1533 14 c-3 -5 -1 -10 5 -10 25 0 -19 -29 -55 -36 -38 -7 -54 3 -55 34
0 10 10 12 39 7 24 -4 42 -2 46 4 3 6 11 11 16 11 6 0 7 -4 4 -10z m-413 -235
c5 -363 -7 -420 -104 -518 -73 -73 -143 -102 -248 -102 -106 0 -154 21 -241
107 -103 101 -103 104 -107 450 l-3 297 350 -2 350 -2 3 -230z m-1195 195 c1
0 -12 -37 -29 -82 -17 -46 -37 -105 -44 -132 -19 -69 -39 -86 -30 -26 14 109
14 120 -1 45 -17 -79 -25 -95 -52 -95 -17 0 -10 43 29 170 39 125 50 141 92
129 18 -5 34 -9 35 -9z m4461 -11 l393 -1 -3 -22 -3 -21 -395 -2 c-217 0 -622
-2 -900 -4 -493 -2 -674 4 -686 23 -20 32 -1 33 602 31 330 -2 776 -3 992 -4z
m-4280 -107 c5 -49 -9 -62 -99 -93 -107 -37 -117 -24 -84 106 23 88 25 89 108
51 65 -29 72 -35 75 -64z m6510 83 c6 -3 12 -9 12 -14 0 -5 -50 -9 -111 -9
-80 -1 -109 2 -106 11 2 6 14 14 28 17 24 6 152 2 177 -5z m-2541 -72 c5 -10
7 -27 7 -38 -1 -11 -3 -29 -3 -40 -2 -17 -4 -16 -17 8 -8 15 -19 27 -24 27
-11 0 -14 43 -3 53 12 13 32 7 40 -10z m117 -6 c17 -17 22 -31 19 -50 l-5 -27
126 0 126 0 0 29 c0 42 9 61 30 61 14 0 18 -13 24 -82 8 -94 -3 -119 -34 -78
-17 23 -28 25 -122 31 -57 4 -111 10 -120 14 -14 5 -18 2 -18 -14 0 -24 -44
-40 -69 -24 -20 12 -27 113 -11 143 14 26 26 25 54 -3z m-681 -33 c14 -68 22
-87 34 -91 8 -3 13 15 15 59 3 57 5 63 26 66 13 2 30 -2 38 -8 18 -16 19 -113
1 -128 -7 -6 -40 -10 -73 -9 l-59 3 3 52 c3 44 1 51 -12 46 -17 -7 -21 11 -10
41 10 26 28 11 37 -31z m216 33 c6 -8 14 -28 17 -46 l7 -31 104 6 c85 6 107 4
114 -7 23 -37 12 -41 -101 -38 -89 2 -113 0 -123 -13 -19 -24 -43 -28 -66 -12
-38 27 -23 154 18 154 10 0 24 -6 30 -13z m-555 -19 c3 -13 4 -48 3 -78 -2
-48 -5 -55 -23 -58 -14 -2 -29 6 -42 22 -16 22 -18 33 -11 64 5 20 9 41 9 45
0 7 35 25 52 26 4 1 10 -9 12 -21z m1456 1 c0 -11 -4 -18 -9 -15 -12 8 -41 -3
-41 -15 0 -5 11 -9 25 -9 14 0 25 -4 25 -10 0 -6 35 -10 85 -10 71 0 85 -3 85
-16 0 -14 -12 -16 -85 -13 -82 4 -85 3 -85 -18 0 -26 -35 -40 -56 -22 -11 9
-14 22 -9 46 4 20 2 33 -5 33 -20 0 -10 29 18 49 35 26 52 26 52 0z m-1346
-33 c10 -26 11 -26 103 -26 86 0 93 -2 93 -20 0 -18 -5 -19 -100 -13 -97 6
-100 5 -100 -15 0 -29 -36 -39 -61 -16 -14 12 -19 30 -19 64 0 56 4 61 44 56
23 -2 33 -10 40 -30z m-1657 -8 c-3 -8 -6 -5 -6 6 -1 11 2 17 5 13 3 -3 4 -12
1 -19z m1227 -14 c25 -10 8 -24 -30 -24 -24 0 -34 5 -34 15 0 15 35 20 64 9z
m191 -4 c27 -10 30 -38 4 -31 -8 2 -49 4 -91 4 -73 1 -93 9 -71 30 10 11 129
8 158 -3z m3556 0 c20 0 29 -5 29 -16 0 -15 -8 -16 -60 -11 -33 4 -71 2 -85
-3 -17 -6 -33 -6 -50 2 -53 24 -16 39 79 32 32 -2 72 -4 87 -4z m-2561 -16 c0
-12 6 -15 22 -11 25 7 48 -8 48 -30 0 -12 -11 -13 -57 -7 -32 3 -60 8 -61 10
-6 4 32 53 41 54 4 0 7 -7 7 -16z m-2397 -24 c3 -11 1 -20 -4 -20 -5 0 -9 9
-9 20 0 11 2 20 4 20 2 0 6 -9 9 -20z m-1533 -24 c0 -27 -3 -28 -94 -46 -32
-7 -86 -25 -120 -41 -33 -16 -68 -29 -77 -29 -9 0 -24 -9 -34 -20 -18 -20 -18
-20 23 -6 22 8 51 21 64 30 32 20 171 66 200 65 25 -1 31 2 -101 -41 -35 -11
-85 -32 -110 -47 -25 -15 -61 -33 -80 -39 l-34 -12 6 35 c3 19 1 37 -4 40 -19
12 -8 33 21 38 16 4 49 15 72 26 24 10 77 27 118 36 41 9 86 21 100 25 41 14
50 11 50 -14z m240 -38 c6 -64 2 -68 -77 -68 -32 0 -43 4 -43 16 0 8 5 12 10
9 6 -4 10 12 10 39 0 25 -4 46 -10 46 -8 0 -12 -13 -23 -90 -3 -14 -5 1 -6 32
-1 52 1 58 22 62 12 3 31 7 42 10 11 2 31 3 45 3 23 -2 25 -7 30 -59z m940 32
c5 0 7 7 4 15 -4 10 0 15 15 15 19 0 21 -6 21 -60 0 -59 -1 -60 -27 -60 -16 0
-52 -3 -81 -7 l-53 -6 6 39 c12 69 14 73 58 81 32 7 43 6 45 -4 2 -7 7 -13 12
-13z m266 6 c43 -12 111 -31 151 -40 68 -17 104 -38 89 -53 -8 -8 -139 13
-164 27 -26 14 -107 39 -152 46 -30 5 -40 11 -40 25 0 25 19 24 116 -5z m-15
-52 c30 -8 72 -24 94 -34 22 -10 67 -23 100 -29 58 -11 85 -24 72 -37 -14 -14
-136 15 -170 40 -18 14 -58 32 -90 40 -63 17 -103 35 -76 36 8 0 40 -7 70 -16z
m2141 -43 c80 -1 129 2 133 8 4 8 13 8 27 0 27 -14 230 -2 241 15 5 8 9 8 15
-2 7 -10 90 -13 372 -13 200 -1 370 -3 377 -6 7 -3 13 -14 13 -24 0 -18 -13
-19 -292 -20 -161 -1 -330 0 -375 1 l-83 2 0 -36 c0 -46 -16 -47 -24 -1 l-7
34 -265 3 c-245 3 -267 2 -275 -14 -11 -21 -37 -24 -45 -5 -3 10 -61 13 -262
14 -141 1 -301 5 -354 8 -85 6 -98 9 -98 25 0 18 17 18 359 13 l359 -5 7 22
c7 21 7 22 28 3 19 -17 40 -20 149 -22z m2950 -10 c27 -24 -68 -37 -240 -33
-45 2 -53 5 -50 20 2 13 16 18 58 22 65 6 222 0 232 -9z m-6554 -52 l3 -35
-51 2 c-48 2 -80 16 -80 34 0 11 57 33 67 27 5 -3 15 -2 23 3 24 15 35 6 38
-31z m282 0 c0 -36 -32 -52 -94 -47 -39 3 -41 4 -44 40 l-3 37 63 3 c35 2 66
2 71 0 4 -2 7 -17 7 -33z m970 3 c0 -36 -2 -40 -39 -50 -79 -24 -112 -13 -114
39 -2 34 -1 34 48 40 108 13 105 13 105 -29z m-1340 -66 c51 -23 98 -51 104
-61 6 -11 15 -23 21 -27 5 -4 6 -10 2 -14 -10 -10 -137 31 -209 67 -41 21 -72
29 -108 29 -59 0 -66 15 -12 25 32 5 51 0 108 -28 38 -19 80 -38 94 -41 14 -4
-2 7 -35 24 -86 43 -104 58 -85 70 8 5 11 10 7 10 -5 0 -5 5 -1 12 5 8 9 6 14
-7 4 -11 44 -35 100 -59z m1520 34 c-32 -10 -80 -12 -80 -2 0 4 24 8 53 9 39
1 46 0 27 -7z m270 -10 c0 -6 -19 -8 -48 -5 -38 3 -68 -3 -141 -30 -91 -34
-141 -43 -141 -27 0 4 46 22 103 39 102 32 227 44 227 23z m-39 -27 c-30 -2
-66 -12 -80 -21 -38 -26 -69 -40 -136 -61 -33 -11 -68 -22 -77 -26 -15 -6 -18
-1 -17 31 0 32 2 36 11 23 10 -15 18 -14 92 8 45 13 92 30 106 38 16 9 49 14
90 13 l65 -2 -54 -3z m2820 -46 c44 6 44 7 25 -38 -7 -19 -16 -55 -19 -81 -4
-44 -3 -48 17 -48 18 0 21 6 22 48 2 94 6 112 26 112 16 0 18 -8 18 -64 0 -35
3 -71 6 -80 13 -35 19 -12 16 63 l-4 79 30 7 c18 3 40 1 52 -5 20 -11 21 -17
15 -81 l-7 -69 153 0 c162 0 241 -12 220 -33 -18 -18 -2325 -17 -2342 0 -22
22 -1 27 118 29 73 1 118 6 122 13 5 8 16 7 40 -5 22 -11 45 -14 74 -10 23 4
56 6 72 5 17 -1 53 -2 80 -1 105 2 141 1 166 -4 18 -3 26 -1 26 9 0 8 6 35 13
61 11 41 11 49 -4 64 -24 27 -20 32 25 32 40 0 41 -1 34 -27 -5 -16 -8 -38 -9
-50 -1 -12 -4 -25 -8 -29 -15 -14 -8 -44 9 -44 21 0 6 -16 -22 -23 -12 -3 -6
-5 16 -6 l35 -1 3 83 c1 45 6 86 12 91 11 12 11 11 9 -91 -1 -71 1 -83 15 -83
12 0 16 8 15 33 -1 17 -2 58 -1 90 1 56 2 57 29 56 30 -1 275 -2 335 -1 24 0
37 -4 34 -11 -5 -17 -167 -21 -250 -7 -38 7 -70 10 -73 8 -2 -3 0 -37 4 -77
l7 -73 230 4 c127 1 311 3 409 3 134 0 180 3 183 13 3 6 -2 12 -11 12 -24 0
-30 21 -7 27 12 3 21 10 21 15 0 6 -8 8 -18 6 -15 -4 -17 0 -14 24 l4 29 -143
-1 c-229 -2 -259 -1 -259 9 0 17 32 20 215 19 168 0 180 1 184 18 4 17 5 17 9
-2 3 -19 8 -21 43 -17z m-4708 -14 c9 -21 21 -58 28 -83 6 -24 34 -89 62 -145
60 -116 63 -124 49 -110 -20 19 -106 201 -128 270 -12 39 -23 61 -23 50 -1
-23 30 -110 88 -249 23 -54 40 -100 39 -101 -2 -1 -13 -8 -25 -14 -20 -10 -23
-9 -23 6 0 10 -20 55 -44 99 -48 89 -70 151 -86 233 -9 47 -8 55 7 67 28 21
39 17 56 -23z m3590 7 c9 0 17 -6 17 -12 0 -10 -49 -13 -217 -11 -120 1 -273
2 -340 2 -97 1 -123 4 -123 15 0 16 120 28 172 17 19 -5 114 -9 210 -10 144
-1 177 1 181 13 5 12 11 12 44 0 21 -7 46 -13 56 -14z m1471 10 c51 0 82 -13
54 -23 -15 -4 -161 3 -167 9 -2 2 2 10 9 19 9 11 17 12 30 5 10 -6 43 -10 74
-10z m1655 0 c55 0 76 -10 52 -24 -8 -5 -285 -10 -366 -7 -60 3 -1 18 94 25
52 4 101 11 110 16 9 5 23 4 33 -1 9 -5 44 -9 77 -9z m-4805 -52 c-29 -133
-59 -205 -113 -266 -25 -29 -32 -32 -49 -23 -21 11 -21 12 7 64 15 28 40 99
55 157 15 58 30 111 32 118 2 7 20 12 42 12 l40 0 -14 -62z m2319 35 c-7 -2
-21 -2 -30 0 -10 3 -4 5 12 5 17 0 24 -2 18 -5z m-2553 -73 c0 -5 -4 -10 -9
-10 -6 0 -13 5 -16 10 -3 6 1 10 9 10 9 0 16 -4 16 -10z m-9 -37 c66 -31 74
-44 60 -96 -7 -23 -20 -53 -30 -66 -17 -22 -19 -22 -48 -8 -16 9 -51 35 -76
59 l-47 43 19 42 c13 28 27 43 43 45 28 5 23 6 79 -19z m89 -8 c0 -9 -6 -12
-15 -9 -8 4 -12 10 -9 15 8 14 24 10 24 -6z m-2203 -11 c-3 -3 -12 -4 -19 -1
-8 3 -5 6 6 6 11 1 17 -2 13 -5z m130 0 c-3 -3 -12 -4 -19 -1 -8 3 -5 6 6 6
11 1 17 -2 13 -5z m121 -1 c-10 -2 -26 -2 -35 0 -10 3 -2 5 17 5 19 0 27 -2
18 -5z m6903 -13 c55 0 69 -3 69 -15 0 -8 -8 -16 -17 -17 -10 0 -31 -3 -48 -4
-54 -6 -429 -4 -469 3 -80 13 -5 23 173 24 103 1 184 5 187 11 3 5 13 7 21 4
8 -3 46 -6 84 -6z m-6081 -47 l22 -38 -26 24 c-14 14 -26 30 -26 38 0 21 7 16
30 -24z m743 -77 c5 -15 -3 -36 -14 -36 -5 0 -9 7 -9 15 0 8 -4 15 -10 15 -13
0 -13 -6 0 -30 11 -21 -12 -56 -60 -90 -38 -27 -66 -14 -105 47 -21 34 -26 49
-18 61 15 25 29 24 41 -3 14 -31 15 -38 3 -31 -5 4 -4 -4 2 -17 16 -34 56 -51
77 -32 9 8 22 15 28 15 18 0 26 22 11 31 -8 4 -16 3 -20 -3 -12 -20 -29 3 -29
39 0 27 3 34 15 29 8 -3 25 -1 37 4 23 9 23 9 1 9 -14 1 -24 11 -32 33 -6 17
-14 29 -17 25 -3 -3 -1 -14 5 -25 13 -25 14 -32 3 -32 -5 0 -14 10 -20 23
l-11 22 0 -22 c-1 -15 -7 -23 -18 -23 -15 0 -14 -4 6 -19 26 -20 23 -51 -5
-51 -11 0 -15 6 -11 20 3 12 -1 23 -10 29 -14 7 -13 12 6 40 38 53 49 54 102
9 27 -22 50 -45 52 -52z m-769 12 c-4 -22 -2 -28 11 -28 13 0 16 6 13 24 -4
22 -1 24 24 24 15 -1 28 -5 28 -10 0 -5 -4 -6 -10 -3 -6 4 -10 -10 -10 -36 0
-36 -2 -40 -15 -29 -9 7 -18 10 -22 6 -3 -3 -1 -6 5 -6 7 0 12 -7 12 -15 0
-20 -24 -19 -55 1 -20 13 -23 21 -18 47 3 18 10 38 16 45 6 8 6 12 -2 12 -6 0
-17 -13 -26 -29 -8 -16 -20 -31 -27 -34 -16 -7 64 -87 87 -87 9 0 27 12 41 27
20 22 24 34 20 58 -4 20 -3 25 3 16 7 -11 10 -10 14 5 2 10 5 2 6 -18 2 -54
-6 -66 -61 -94 l-50 -25 -39 41 c-52 54 -52 89 -3 138 35 35 37 36 50 17 9
-12 12 -30 8 -47z m1019 -23 c37 -30 71 -55 75 -55 14 0 62 -55 62 -71 -1 -9
-7 -7 -20 9 -12 14 -21 18 -25 12 -4 -7 -35 16 -79 57 -120 115 -127 140 -13
48z m-1296 23 c-3 -8 -6 -5 -6 6 -1 11 2 17 5 13 3 -3 4 -12 1 -19z m1302 -95
c50 -66 81 -120 81 -143 l0 -25 -21 25 c-11 14 -24 34 -29 46 -7 17 -147 102
-186 112 -8 2 -3 19 13 48 l25 44 48 -40 c26 -22 57 -52 69 -67z m2657 46 c9
-7 50 -14 98 -15 77 -2 84 -1 95 19 l12 22 -5 -22 -4 -22 241 5 c141 3 246 9
253 15 8 6 14 7 18 0 7 -10 348 -19 464 -11 9 0 67 -4 127 -11 75 -7 189 -9
355 -3 135 4 337 8 450 9 135 2 205 6 208 13 2 8 11 8 28 1 14 -5 55 -9 90 -9
48 0 65 -3 61 -12 -5 -17 -4 -17 -1254 -20 l-1042 -3 -3 -68 c-2 -38 0 -71 5
-74 4 -2 58 -4 120 -4 84 0 107 -3 93 -11 -11 -6 -48 -8 -87 -6 -53 4 -72 2
-81 -9 -8 -10 -22 -13 -40 -9 l-28 6 0 -59 0 -58 454 1 c250 1 458 -2 462 -6
19 -19 -25 -23 -274 -23 l-267 0 3 -63 c3 -58 2 -63 -15 -60 -16 3 -18 12 -15
73 2 45 -1 65 -7 56 -12 -18 -317 -16 -339 2 -12 9 -13 1 -10 -53 2 -36 8 -73
12 -82 6 -14 4 -18 -12 -18 -18 0 -22 8 -28 70 l-7 70 -177 0 -178 0 6 -65 c3
-45 1 -65 -7 -65 -7 0 -11 20 -11 53 0 28 -4 57 -8 62 -4 6 -98 10 -245 10
l-237 0 -1 -50 -2 -50 -7 60 c-3 33 -5 65 -3 70 2 6 88 8 243 5 132 -3 240 -3
240 0 0 3 90 4 200 2 159 -2 200 0 200 10 0 7 3 24 7 37 6 22 4 23 -21 17 -30
-7 -48 16 -27 37 27 27 10 32 -116 29 -70 -2 -125 -1 -122 3 6 6 225 25 283
25 l28 0 -4 64 c-2 36 -6 67 -8 69 -3 2 -197 2 -432 -1 l-428 -5 -1 -26 -2
-26 -4 27 -4 28 -322 2 c-297 3 -322 4 -325 21 -3 14 4 17 42 17 25 0 46 5 46
10 0 6 11 3 25 -6 29 -19 136 -15 143 4 2 8 8 7 19 -3 19 -19 107 -20 126 -1
9 9 19 11 28 5 20 -12 116 -11 124 1 5 8 11 8 20 0 7 -6 39 -10 71 -8 53 3 59
5 65 28 l6 25 8 -28 c9 -33 38 -42 108 -33 29 4 57 7 62 6 23 -4 130 -4 278
-2 l157 2 1 33 c1 22 3 25 6 10 2 -12 11 -27 19 -34z m170 26 c-21 -16 -32
-13 -21 4 3 6 14 11 23 11 15 -1 15 -2 -2 -15z m-4903 -2 c-7 -2 -19 -2 -25 0
-7 3 -2 5 12 5 14 0 19 -2 13 -5z m835 -30 c2 -9 -10 -13 -40 -13 -23 0 -68
-7 -98 -15 -30 -8 -62 -15 -70 -14 -26 0 37 29 97 44 67 16 105 15 111 -2z
m874 -41 c-27 -4 -37 2 -27 17 4 8 13 7 28 -1 l22 -13 -23 -3z m-854 -3 c3
-16 -20 -25 -118 -50 -77 -19 -93 -20 -101 -8 -5 9 -17 6 -44 -9 -41 -25 -45
-26 -45 -13 0 21 76 66 139 83 81 21 164 20 169 -3z m1132 -40 c44 -23 87 -51
97 -62 15 -16 11 -15 -22 5 -37 23 -110 57 -157 72 -19 6 -25 26 -7 26 5 0 46
-19 89 -41z m240 21 c0 -5 -4 -10 -10 -10 -5 0 -10 5 -10 10 0 6 5 10 10 10 6
0 10 -4 10 -10z m-1099 -23 c-10 -9 -11 -8 -5 6 3 10 9 15 12 12 3 -3 0 -11
-7 -18z m3345 -48 l-7 -51 34 6 c52 10 65 1 58 -37 -6 -27 -12 -32 -36 -34
-17 0 -35 -2 -42 -2 -6 -1 -14 -9 -16 -18 -3 -10 -5 -5 -6 12 -1 27 -6 32 -48
45 -73 22 -461 12 -447 -12 4 -5 21 -7 40 -3 34 6 34 5 28 -22 -9 -40 -17 -45
-60 -41 -42 3 -41 1 -28 78 l6 36 252 -4 253 -4 -5 51 c-4 44 -2 51 13 51 15
0 17 -6 11 -51z m-2495 5 c47 -15 92 -36 106 -50 l25 -25 -29 -28 c-102 -101
-192 -167 -297 -217 -108 -51 -266 -104 -314 -104 -19 0 -23 4 -20 27 2 14 10
27 18 29 36 5 217 56 240 66 38 18 82 50 77 55 -3 2 -23 -7 -45 -21 -34 -21
-97 -41 -224 -70 -16 -4 -28 -3 -28 2 0 4 27 13 59 19 95 18 296 108 386 174
156 113 160 120 48 84 -70 -23 -244 -37 -251 -21 -5 13 122 105 145 105 12 1
59 -11 104 -25z m2056 4 c-3 -8 -6 -5 -6 6 -1 11 2 17 5 13 3 -3 4 -12 1 -19z
m-1863 -4 c3 -8 2 -12 -4 -9 -6 3 -10 10 -10 16 0 14 7 11 14 -7z m3126 1 c9
-10 9 -15 1 -15 -6 0 -11 -7 -11 -15 0 -8 8 -15 17 -15 23 0 53 -29 53 -52 0
-10 -2 -18 -4 -18 -2 0 -12 -3 -21 -7 -15 -5 -16 -3 -6 16 14 26 0 34 -50 29
-24 -2 -35 -9 -37 -22 -3 -12 0 -16 7 -11 7 3 25 10 41 15 24 7 30 5 30 -6 0
-8 -4 -12 -10 -9 -5 3 -10 2 -10 -4 0 -5 5 -11 11 -13 17 -6 1 -48 -18 -48
-11 0 -14 7 -11 24 5 23 2 24 -23 19 -30 -6 -31 -5 -33 48 -1 24 5 34 22 42
14 6 22 19 22 34 0 26 12 30 30 8z m-5190 -6 c12 -9 11 -10 -7 -6 -13 3 -21 0
-20 -6 3 -18 -43 -20 -87 -5 l-41 13 60 6 c33 3 65 6 70 7 6 1 17 -3 25 -9z
m525 1 c-3 -5 -13 -10 -21 -10 -8 0 -12 5 -9 10 3 6 13 10 21 10 8 0 12 -4 9
-10z m273 -5 c45 -5 127 -58 117 -75 -6 -9 -92 -5 -205 11 -76 11 -133 35
-127 53 8 23 71 26 215 11z m6242 -25 c44 0 80 -4 80 -9 0 -13 -47 -19 -120
-17 -36 2 -133 -1 -217 -5 -84 -4 -162 -5 -175 -1 -25 7 178 30 275 31 47 1
57 4 57 19 1 16 1 16 11 0 8 -15 24 -18 89 -18z m-6466 -35 c272 -177 318
-198 571 -254 81 -18 4 -10 -91 9 -106 22 -170 44 -278 97 -78 39 -99 38 -32
-1 80 -47 224 -96 333 -115 59 -9 109 -23 111 -29 2 -7 -3 -12 -11 -12 -8 0
-18 -8 -22 -17 -5 -15 -4 -16 6 -5 19 18 29 15 29 -8 0 -19 -4 -20 -37 -15
-137 22 -233 49 -283 80 -30 18 -80 44 -110 59 -70 33 -172 110 -182 137 -4
11 -12 17 -18 14 -6 -4 -9 -3 -8 2 2 4 -18 28 -45 52 -85 78 -50 82 67 6z
m3009 19 c54 -4 95 -10 91 -13 -7 -7 -236 -3 -277 5 -48 10 -18 26 37 20 28
-3 95 -9 149 -12z m2167 -51 c-1 -35 -6 -66 -15 -77 -18 -24 -30 -15 -16 12 6
12 11 38 11 59 l-1 38 -22 -37 c-12 -21 -25 -38 -29 -38 -3 0 -5 22 -5 50 l2
50 38 0 37 0 0 -57z m109 48 c22 -14 9 -140 -15 -148 -7 -2 -8 15 -1 57 10 63
5 82 -15 62 -7 -7 -11 -34 -10 -62 2 -48 -10 -66 -22 -34 -10 27 -6 110 6 122
14 14 37 15 57 3z m504 2 c-7 -2 -19 -2 -25 0 -7 3 -2 5 12 5 14 0 19 -2 13
-5z m-848 -13 c62 -6 55 -7 -62 -8 -79 -1 -134 2 -138 8 -7 11 90 12 200 0z
m508 3 c-13 -2 -35 -2 -50 0 -16 2 -5 4 22 4 28 0 40 -2 28 -4z m85 0 c-10 -2
-26 -2 -35 0 -10 3 -2 5 17 5 19 0 27 -2 18 -5z m140 0 c-21 -2 -57 -2 -80 0
-24 2 -7 4 37 4 44 0 63 -2 43 -4z m-6255 -40 c-13 -2 -33 -2 -45 0 -13 2 -3
4 22 4 25 0 35 -2 23 -4z m5723 -49 c-4 -9 -9 -15 -11 -12 -3 3 -3 13 1 22 4
9 9 15 11 12 3 -3 3 -13 -1 -22z m-4683 -9 c34 -7 80 -18 102 -22 42 -8 52
-25 41 -67 -5 -22 -8 -22 -68 -14 -105 13 -195 38 -219 61 -13 12 -18 22 -11
25 6 2 8 10 5 18 -7 19 68 19 150 -1z m271 -92 c3 -42 6 -100 6 -130 0 -52 0
-53 -30 -53 l-30 0 0 123 c0 68 3 127 7 130 3 4 14 7 23 7 14 0 18 -14 24 -77z
m5156 65 c-14 -6 -50 -22 -80 -35 -30 -13 -67 -36 -82 -50 -38 -37 -70 -125
-62 -170 6 -31 4 -35 -12 -31 -24 4 -30 58 -14 117 21 78 112 150 214 171 57
11 65 10 36 -2z m-5225 -123 c1 -64 -2 -118 -7 -121 -4 -3 -8 52 -8 122 0 70
3 124 6 121 4 -3 8 -58 9 -122z m2410 106 c116 -5 212 -8 215 -6 3 2 4 -32 2
-76 -4 -79 -16 -102 -28 -53 -4 14 -4 43 -1 65 l5 39 -89 0 c-88 0 -332 17
-357 26 -22 7 -2 24 21 19 12 -3 117 -9 232 -14z m2125 -76 c0 -85 -12 -112
-24 -54 -3 17 -6 56 -6 85 0 41 4 54 15 54 12 0 15 -16 15 -85z m1150 75 c0
-5 -4 -10 -10 -10 -5 0 -10 5 -10 10 0 6 5 10 10 10 6 0 10 -4 10 -10z m200 1
c0 -9 -169 -21 -184 -13 -19 11 31 21 107 21 42 1 77 -3 77 -8z m-454 -39 c69
-36 123 -112 138 -195 19 -103 -73 -239 -183 -271 -79 -23 -127 -20 -196 12
-102 49 -142 112 -148 234 -5 113 91 231 200 247 63 9 140 -2 189 -27z m219
28 c-8 -12 -92 -13 -99 -1 -3 4 19 9 50 10 34 0 53 -3 49 -9z m-765 -10 c-106
-10 -316 -10 -275 -1 17 4 104 8 195 8 142 0 153 -1 80 -7z m928 -121 c44 0
68 -3 57 -7 -29 -11 -165 -2 -165 10 0 6 7 7 16 4 9 -3 50 -6 92 -7z m-918
-18 c0 -12 -72 -21 -85 -10 -5 4 -23 9 -40 12 -16 2 5 5 48 6 42 0 77 -3 77
-8z m-2070 -191 l0 -130 -220 0 c-211 0 -220 -1 -220 -19 0 -19 7 -19 193 -15
105 3 207 6 225 9 23 3 32 0 32 -11 0 -8 -6 -14 -12 -13 -7 1 -109 1 -226 0
-209 -1 -213 -1 -207 -21 7 -24 -10 -27 -19 -4 -3 9 -5 68 -4 132 1 89 3 105
8 67 7 -50 7 -49 8 21 1 42 -3 75 -10 82 -23 23 37 31 245 31 l207 1 0 -130z
m654 124 c13 -5 16 -26 16 -130 l0 -124 -118 0 c-66 0 -167 -3 -226 -7 -101
-6 -107 -7 -104 -27 2 -14 11 -22 28 -23 152 -12 179 -16 174 -24 -3 -5 -54
-9 -113 -9 l-108 0 1 168 c1 98 5 170 11 174 12 9 417 11 439 2z m664 -126 l3
-128 -235 0 c-200 0 -237 2 -250 16 -15 14 -16 11 -16 -35 l0 -51 93 0 c112
-1 99 -16 -20 -23 -76 -5 -83 -3 -89 15 -3 11 -3 90 1 176 l7 157 252 0 251 0
3 -127z m612 2 l0 -130 -211 0 c-126 0 -218 4 -230 10 -17 9 -19 7 -19 -17 l0
-28 167 3 c168 3 293 -4 293 -16 0 -4 -104 -6 -231 -4 -160 2 -229 0 -224 -7
3 -6 41 -11 87 -11 99 0 97 -11 -2 -16 -40 -2 -78 -8 -86 -15 -12 -10 -14 15
-14 170 l0 181 223 3 c122 1 228 3 235 5 9 1 12 -29 12 -128z m-2780 -4 c-41
-87 -137 -215 -191 -255 -39 -28 -77 -48 -219 -114 -33 -15 -7 -16 405 -16
242 0 494 -4 560 -10 66 -6 136 -11 155 -11 25 0 31 -3 20 -10 -8 -5 -771 -9
-1905 -10 -1039 -1 -1975 -3 -2078 -5 l-188 -4 3 22 c3 22 6 22 233 28 127 4
453 6 725 6 1255 0 1889 4 1950 14 36 5 102 25 147 43 195 80 335 219 394 391
11 32 14 36 17 18 2 -12 -11 -52 -28 -87z m3919 58 c11 -10 -11 -13 -94 -14
-50 -1 -103 2 -120 6 l-30 8 30 7 c29 6 205 0 214 -7z m-3659 -4 c0 -5 -21 -9
-47 -9 l-48 2 40 7 c22 4 43 8 48 9 4 0 7 -3 7 -9z m2665 -10 c-3 -5 -17 -10
-31 -10 -13 0 -24 5 -24 10 0 6 14 10 31 10 17 0 28 -4 24 -10z m-2650 -140
c3 -5 -1 -10 -9 -10 -9 0 -16 5 -16 10 0 6 4 10 9 10 6 0 13 -4 16 -10z m2685
0 c0 -5 -9 -10 -19 -10 -11 0 -23 5 -26 10 -4 6 5 10 19 10 14 0 26 -4 26 -10z
m955 -5 c0 -12 -115 -19 -163 -10 -18 3 -30 10 -26 16 8 13 189 7 189 -6z
m-2393 -89 c-5 -18 -7 -18 -10 -3 -3 15 -21 17 -198 17 -134 0 -194 3 -194 11
0 8 57 9 195 5 154 -5 195 -4 195 6 0 10 2 10 9 -1 5 -7 6 -23 3 -35z m648 24
c0 -6 -82 -10 -226 -10 -147 0 -223 3 -219 10 4 6 90 10 226 10 139 0 219 -4
219 -10z m-1457 -37 c-7 -2 -19 -2 -25 0 -7 3 -2 5 12 5 14 0 19 -2 13 -5z
m1452 -13 c-3 -5 -35 -10 -70 -10 -35 0 -67 5 -70 10 -4 6 22 10 70 10 48 0
74 -4 70 -10z m-5369 -39 c32 -15 83 -39 113 -52 93 -40 39 -32 -70 11 -76 29
-119 40 -158 40 -64 0 -60 11 7 21 26 3 47 7 48 8 0 0 27 -12 60 -28z m3514 0
c0 -17 -9 -18 -147 -15 -82 1 -150 4 -153 5 -6 2 216 25 268 28 25 1 32 -3 32
-18z m2752 2 c20 -18 26 -41 6 -26 -19 15 -87 23 -93 12 -6 -9 -55 -13 -55 -5
0 2 -3 11 -6 20 -9 24 122 23 148 -1z m781 8 c115 -1 96 -22 -23 -25 -98 -3
-156 9 -115 25 11 4 29 6 40 4 11 -2 55 -4 98 -4z m-625 -149 c48 -27 20 -32
-187 -32 -176 0 -210 2 -215 15 -3 10 2 16 17 20 12 2 31 6 42 9 41 10 320 0
343 -12z m-1728 -11 l85 -7 -115 -8 c-171 -11 -572 -4 -577 11 -2 6 4 14 14
16 23 6 479 -3 593 -12z m1183 3 c65 -19 -45 -24 -516 -24 -475 0 -588 5 -537
24 36 14 1006 13 1053 0z m1245 4 c7 -7 12 -16 12 -20 0 -4 -99 -8 -220 -8
-187 0 -219 2 -214 14 8 21 28 23 230 25 128 1 183 -2 192 -11z m0 -152 c4
-18 -2 -19 -154 -12 -208 8 -6788 8 -7006 0 -149 -6 -168 -5 -168 9 0 8 8 18
18 20 9 3 1657 4 3662 3 3577 -1 3645 -1 3648 -20z m-2728 -41 c8 -5 10 -25 5
-63 -6 -51 -5 -55 9 -43 31 26 176 -15 319 -92 123 -65 256 -248 298 -411 48
-187 23 -483 -45 -523 -7 -4 -21 -21 -29 -38 -9 -16 -26 -41 -37 -55 l-20 -25
10 27 c5 16 17 39 26 53 48 74 70 350 40 508 -36 184 -161 354 -316 430 -73
36 -194 72 -275 82 -70 9 -233 -29 -325 -75 -80 -41 -163 -105 -200 -156 -45
-63 -107 -200 -125 -275 -19 -81 -19 -253 0 -342 46 -219 216 -393 460 -473
68 -23 99 -27 212 -28 168 -1 131 -15 -62 -23 -163 -6 -227 6 -340 65 -161 84
-281 242 -327 428 -29 119 -28 303 3 414 61 222 241 424 428 480 92 27 172 35
201 20 21 -11 22 -11 16 11 -4 13 -10 43 -13 66 -5 35 -2 42 13 45 25 5 60 2
74 -7z m-3536 -46 c0 -24 -4 -53 -9 -64 -8 -19 -8 -19 12 -2 18 16 28 17 87 7
71 -11 217 -71 308 -126 31 -19 75 -56 97 -83 57 -68 125 -192 156 -285 25
-76 26 -87 23 -250 -4 -195 -12 -225 -84 -337 -31 -47 -51 -69 -65 -69 -22 0
-23 -5 39 130 47 103 55 156 49 309 -6 150 -19 205 -74 316 -55 109 -100 161
-188 219 -95 63 -135 79 -270 111 -108 26 -115 26 -240 0 -145 -30 -295 -120
-370 -223 -44 -60 -110 -194 -123 -252 -30 -131 -22 -336 19 -444 26 -71 105
-182 168 -237 47 -41 72 -58 206 -135 l50 -29 -38 -3 c-106 -9 -275 108 -378
260 -77 113 -102 211 -103 408 -1 160 17 230 95 376 70 130 156 215 279 277
114 56 217 78 256 52 13 -8 25 -15 27 -15 2 0 0 26 -4 58 -7 65 4 83 49 78 25
-3 27 -7 26 -47z m1811 38 c14 -11 17 -23 13 -55 l-6 -40 33 5 c52 8 130 -14
251 -72 102 -49 117 -60 187 -138 138 -152 197 -304 197 -513 0 -116 -10 -167
-57 -279 -25 -60 -49 -95 -65 -95 -15 0 -8 35 23 115 49 129 51 323 4 486 -36
125 -135 257 -253 338 -80 54 -309 118 -386 108 -167 -24 -267 -59 -358 -127
-94 -71 -153 -141 -198 -234 -56 -117 -73 -191 -73 -321 1 -202 49 -323 177
-451 95 -95 192 -155 306 -191 107 -33 96 -51 -22 -35 -104 15 -176 50 -288
141 -97 78 -152 162 -198 298 -24 71 -26 92 -26 243 0 155 1 169 27 240 68
187 210 348 374 427 72 35 221 68 255 57 15 -4 17 -1 12 25 -10 47 2 81 29 81
13 0 31 -6 42 -13z m3440 -4 c13 -13 16 -28 12 -67 -4 -44 -3 -48 9 -31 23 32
123 8 268 -63 103 -51 130 -70 181 -124 63 -67 141 -172 167 -223 28 -53 57
-178 64 -266 9 -122 -24 -298 -62 -330 -27 -22 -34 3 -20 66 59 254 3 499
-154 678 -51 57 -170 138 -247 167 -90 34 -223 62 -267 57 -68 -7 -217 -56
-286 -94 -90 -49 -142 -94 -194 -166 -82 -116 -121 -215 -135 -343 -19 -164
51 -403 153 -521 55 -63 151 -131 253 -179 50 -24 94 -48 98 -54 12 -19 -85
-10 -144 14 -78 32 -142 75 -219 150 -139 135 -223 377 -201 586 12 124 24
163 82 280 58 117 117 186 226 259 99 68 172 94 263 95 l78 1 0 56 c0 31 3 59
7 62 12 13 52 7 68 -10z m-5686 -94 c53 0 88 -3 79 -7 -9 -4 -111 -5 -225 -2
-184 4 -196 5 -108 11 55 3 113 4 129 2 16 -1 72 -3 125 -4z m1546 -9 c17 -5
-152 -7 -375 -5 -223 2 -407 5 -410 6 -28 16 728 14 785 -1z m2035 -1 c0 -9
-122 -10 -461 -6 -254 4 -464 9 -467 12 -3 3 205 5 461 5 340 0 467 -3 467
-11z m1777 5 c-10 -10 -642 -13 -658 -3 -8 5 122 9 325 9 187 0 337 -3 333 -6z
m750 0 c-3 -3 -12 -4 -19 -1 -8 3 -5 6 6 6 11 1 17 -2 13 -5z m86 -1 c-13 -2
-33 -2 -45 0 -13 2 -3 4 22 4 25 0 35 -2 23 -4z m338 -3 c-56 -4 -126 -4 -155
0 -35 5 -4 7 104 7 154 0 154 0 51 -7z m-6693 -174 c14 -48 13 -49 -12 -75
-25 -25 -28 -25 -54 -11 -33 19 -39 45 -17 70 9 10 15 25 13 32 -6 16 21 39
42 35 8 -1 20 -24 28 -51z m2353 34 c-2 -8 -6 -36 -8 -62 l-5 -46 -52 -7 c-30
-5 -90 -27 -146 -55 -98 -50 -156 -100 -200 -173 -12 -21 -27 -36 -34 -34 -45
17 -56 18 -56 3 0 -8 13 -17 31 -21 23 -5 29 -11 24 -23 -4 -10 -10 -25 -12
-34 -3 -10 -13 -18 -22 -19 -10 0 -11 -2 -3 -6 6 -2 12 -16 12 -29 0 -22 -4
-24 -46 -24 l-46 0 7 47 c11 78 46 175 77 222 17 24 59 74 94 110 49 53 81 76
144 105 96 46 163 65 210 63 26 -2 34 -6 31 -17z m181 -7 c138 -31 266 -132
323 -254 31 -67 31 -75 1 -83 -13 -3 -31 -8 -39 -12 -15 -5 -60 54 -51 68 3 4
21 8 40 8 24 0 34 4 31 13 -2 7 -22 12 -48 12 -35 0 -50 6 -74 29 l-30 28 33
-6 c17 -3 46 -9 62 -12 40 -8 38 4 -7 48 -38 35 -219 135 -229 125 -6 -6 109
-77 126 -77 8 0 11 -9 8 -25 -5 -21 -2 -25 20 -25 18 0 23 -3 16 -10 -7 -7
-47 1 -125 26 -63 19 -134 39 -159 42 l-45 7 -3 48 c-5 81 3 84 150 50z m1532
11 c3 -9 6 -37 6 -64 l0 -48 -97 -17 c-92 -17 -101 -20 -154 -66 -50 -43 -58
-47 -69 -33 -8 8 -22 20 -33 26 -19 10 -19 8 2 -21 l22 -31 -47 -60 c-34 -44
-52 -59 -63 -54 -60 25 -83 8 -31 -23 33 -19 34 -21 20 -57 -7 -19 -17 -26
-37 -27 -24 -2 -25 -2 -5 -6 13 -3 22 -12 22 -23 0 -21 -4 -25 -42 -34 -27 -6
-28 -5 -28 38 0 56 40 185 77 248 56 95 118 155 206 198 127 62 239 86 251 54z
m148 1 c110 -24 163 -54 261 -147 48 -47 87 -89 86 -94 0 -5 -18 -24 -39 -42
l-38 -33 -23 41 c-12 22 -28 40 -34 40 -7 0 -20 9 -31 21 -10 12 -30 27 -44
35 -51 27 -53 30 -41 53 15 27 4 27 -17 0 -16 -18 -21 -19 -62 -8 -25 6 -64
13 -87 16 l-43 5 0 48 c0 57 7 80 25 80 8 0 47 -7 87 -15z m2298 -2 c2 -2 -6
-6 -18 -10 -20 -5 -22 -12 -22 -64 0 -33 -4 -59 -9 -59 -5 0 -16 -3 -25 -6
-19 -7 -22 26 -4 44 6 6 9 15 5 19 -4 3 -14 -2 -22 -13 -14 -17 -15 -15 -9 26
5 42 4 44 -10 26 -16 -19 -16 -19 -16 5 0 39 17 48 74 42 28 -3 53 -8 56 -10z
m-5943 -25 c-10 -62 -25 -88 -51 -88 -13 0 -37 -3 -53 -6 -27 -5 -31 -3 -38
23 -5 15 -7 33 -6 40 1 7 -7 9 -19 6 -23 -6 -26 -18 -7 -30 16 -10 30 -43 18
-43 -24 0 -170 -109 -230 -171 -54 -56 -74 -71 -90 -66 -24 6 -29 -8 -6 -17
20 -7 19 -33 -7 -86 -12 -25 -21 -47 -20 -50 0 -3 -12 -7 -27 -8 l-28 -2 9 57
c9 60 53 174 90 235 33 54 114 135 165 165 66 38 180 72 247 73 l59 0 -6 -32z
m203 -2 c92 -38 172 -96 131 -96 -6 0 -23 -14 -38 -30 -26 -28 -30 -29 -48
-16 -19 14 -19 15 -1 35 11 12 25 21 33 21 21 0 15 18 -9 26 -16 5 -25 2 -33
-11 -31 -51 -30 -51 -82 -36 -26 8 -70 16 -96 19 -53 4 -50 -6 -31 93 l6 31
57 -7 c31 -4 81 -17 111 -29z m490 -31 c7 -29 10 -60 7 -69 -7 -19 -36 -21
-71 -5 -19 9 -22 15 -15 28 5 9 14 30 20 46 l11 30 9 -24 c7 -17 6 -27 -2 -32
-7 -4 -9 -14 -6 -24 4 -9 12 -13 18 -10 6 4 8 13 5 20 -3 8 -1 15 4 17 5 2 1
19 -8 38 -18 39 -52 44 -52 9 0 -17 -3 -18 -20 -7 -28 18 -20 32 21 38 56 9
65 3 79 -55z m338 58 c-42 -2 -114 -2 -160 0 -46 1 -11 3 77 3 88 0 125 -2 83
-3z m189 -1 c16 -10 29 -72 16 -72 -6 0 -13 -13 -16 -30 -5 -21 -12 -30 -27
-30 -11 0 -20 5 -20 11 0 5 -4 8 -9 4 -17 -10 -23 15 -16 70 7 51 9 55 34 55
14 0 32 -4 38 -8z m1263 -18 c12 -30 13 -94 2 -111 -4 -7 -16 -10 -27 -8 -11
2 -25 4 -31 4 -14 1 -34 45 -34 74 0 60 71 92 90 41z m1689 -35 c12 -52 12
-62 0 -70 -30 -19 -57 -10 -68 22 -15 44 -14 52 10 83 31 39 44 32 58 -35z
m487 53 c6 -4 14 -25 17 -46 5 -30 2 -46 -14 -67 -24 -34 -39 -36 -63 -10 -16
17 -16 24 -5 58 7 21 12 46 11 56 -1 18 32 24 54 9z m550 -3 c4 -8 9 -8 17 0
15 15 73 14 157 -4 82 -17 109 -30 208 -98 81 -56 126 -103 165 -174 l26 -48
-46 1 c-40 1 -49 5 -83 45 -48 57 -142 121 -206 142 -27 9 -80 21 -118 26 -37
5 -70 12 -73 15 -3 2 -11 22 -19 43 l-15 38 6 -45 6 -46 -63 -13 c-110 -22
-200 -74 -270 -155 l-27 -31 -30 29 c-17 16 -34 26 -38 22 -4 -4 -3 -10 3 -14
6 -4 20 -14 32 -23 l23 -16 -22 -37 c-20 -34 -39 -47 -39 -26 0 5 -16 12 -35
16 -42 8 -43 18 -5 68 17 22 30 44 30 50 0 24 124 148 174 173 114 58 226 87
242 62z m791 5 c-3 -3 -12 -4 -19 -1 -8 3 -5 6 6 6 11 1 17 -2 13 -5z m96 -1
c-7 -2 -19 -2 -25 0 -7 3 -2 5 12 5 14 0 19 -2 13 -5z m180 0 c-7 -2 -19 -2
-25 0 -7 3 -2 5 12 5 14 0 19 -2 13 -5z m-3328 -42 c17 -38 17 -39 -6 -70 -17
-23 -30 -31 -48 -29 -36 4 -36 23 -2 54 17 15 31 34 31 43 0 11 -8 6 -25 -14
-23 -29 -24 -29 -25 -7 -1 68 48 83 75 23z m-2519 -144 c42 -53 100 -154 92
-162 -2 -2 -22 -7 -43 -10 -35 -5 -42 -2 -58 19 -17 24 -16 26 8 50 27 27 29
34 16 55 -7 11 -13 7 -25 -18 -15 -29 -40 -41 -48 -23 -1 4 -20 21 -40 36 -40
30 -48 46 -24 46 8 0 24 16 36 34 11 19 26 33 33 30 7 -3 31 -29 53 -57z
m-1390 38 c-22 -17 -36 -18 -63 -8 -16 7 7 14 72 21 6 1 1 -5 -9 -13z m1129
-45 c77 -30 170 -120 210 -205 48 -102 46 -265 -6 -367 -10 -20 -42 -64 -70
-98 -87 -104 -245 -164 -367 -140 -241 49 -404 273 -363 497 29 157 126 272
279 330 59 21 242 12 317 -17z m1749 14 c118 -30 209 -106 266 -222 27 -54 34
-82 38 -147 8 -152 -37 -254 -157 -352 -101 -83 -241 -125 -338 -102 -138 33
-260 125 -315 237 -31 64 -33 72 -33 182 0 111 1 117 35 185 54 109 142 182
265 221 56 18 166 17 239 -2z m1768 -14 c73 -27 183 -131 222 -209 32 -62 48
-185 35 -257 -38 -204 -248 -359 -462 -341 -128 11 -276 108 -328 213 -68 141
-64 320 10 427 36 53 117 129 162 153 93 48 255 55 361 14z m1699 16 c32 -7
79 -26 105 -41 68 -40 157 -133 187 -197 81 -172 49 -327 -97 -466 -81 -77
-141 -106 -249 -121 -179 -25 -357 70 -438 234 -33 67 -34 74 -34 185 0 104 3
121 27 172 36 77 80 130 144 174 96 66 233 89 355 60z m-1356 -128 c12 -30 12
-35 -8 -55 -26 -29 -41 -29 -61 2 -22 34 -20 48 12 67 37 24 41 23 57 -14z
m513 25 c-27 -2 -69 -2 -95 0 -27 2 -5 3 47 3 52 0 74 -1 48 -3z m-3470 -10
c-21 -2 -55 -2 -75 0 -21 2 -4 4 37 4 41 0 58 -2 38 -4z m4735 -110 c27 -87
29 -103 11 -103 -16 0 -43 26 -44 42 0 4 9 9 19 13 30 9 15 45 -18 45 -26 0
-51 16 -51 31 0 4 15 10 33 12 17 2 33 5 34 5 1 1 8 -19 16 -45z m-1053 22 c7
-8 23 -15 36 -15 27 0 29 -7 14 -44 -8 -21 -16 -26 -45 -26 -19 0 -35 -4 -35
-10 0 -5 16 -10 35 -10 34 0 43 -12 27 -36 -4 -6 -27 -13 -50 -16 l-44 -4 7
56 c7 65 23 120 35 120 4 0 13 -7 20 -15z m-692 -50 c16 -60 15 -75 -3 -75
-22 0 -42 47 -27 62 20 20 14 28 -13 18 -35 -13 -41 6 -8 23 16 8 30 15 33 16
3 1 11 -19 18 -44z m-3520 14 c2 -13 -4 -15 -34 -10 -52 9 -59 33 -8 29 26 -2
40 -8 42 -19z m1796 -12 c6 -27 5 -28 -26 -25 -25 2 -34 8 -36 25 -3 17 3 22
25 25 15 2 28 3 29 3 1 0 4 -13 8 -28z m-3116 6 c-21 -2 -57 -2 -80 0 -24 2
-7 4 37 4 44 0 63 -2 43 -4z m5275 0 c-13 -2 -33 -2 -45 0 -13 2 -3 4 22 4 25
0 35 -2 23 -4z m-3653 -12 c0 -4 -11 -6 -25 -3 -14 2 -25 6 -25 8 0 2 11 4 25
4 14 0 25 -4 25 -9z m-290 -25 c0 -2 3 -11 6 -20 5 -12 -1 -16 -24 -16 -32 0
-48 13 -37 30 6 9 55 15 55 6z m1792 -38 c-9 -9 -12 -9 -12 1 0 7 -5 9 -12 5
-9 -5 -8 -2 1 10 10 12 17 14 25 6 7 -7 6 -14 -2 -22z m-2861 -73 c24 -5 29
-11 27 -28 -2 -16 -12 -23 -40 -28 l-38 -6 0 51 c1 38 3 47 10 34 6 -9 24 -19
41 -23z m4917 8 c-16 -2 -40 -2 -55 0 -16 2 -3 4 27 4 30 0 43 -2 28 -4z
m1675 0 c-7 -2 -21 -2 -30 0 -10 3 -4 5 12 5 17 0 24 -2 18 -5z m-5235 -10
c-10 -2 -28 -2 -40 0 -13 2 -5 4 17 4 22 1 32 -1 23 -4z m89 1 c-3 -3 -12 -4
-19 -1 -8 3 -5 6 6 6 11 1 17 -2 13 -5z m56 -1 c-7 -2 -19 -2 -25 0 -7 3 -2 5
12 5 14 0 19 -2 13 -5z m298 -3 c24 0 29 -4 29 -24 0 -29 -3 -31 -51 -40 -36
-6 -37 -6 -41 29 -5 40 0 48 20 40 7 -3 27 -5 43 -5z m3497 -6 c6 -2 12 -12
12 -23 0 -20 -25 -31 -77 -31 -31 0 -33 2 -33 34 l0 34 43 -5 c23 -2 48 -6 55
-9z m-1748 -24 c0 -28 -2 -30 -40 -30 -38 0 -40 2 -40 30 0 28 2 30 40 30 38
0 40 -2 40 -30z m-3528 -77 c-2 -12 2 -32 8 -43 14 -25 -2 -50 -31 -50 -21 0
-34 21 -43 71 -8 43 -1 51 39 47 25 -2 29 -7 27 -25z m1813 -29 c0 -22 -7 -32
-28 -42 -33 -16 -42 -10 -52 35 -6 30 -5 32 27 36 49 6 53 3 53 -29z m3458 26
c39 0 36 -32 -6 -64 -19 -15 -37 -26 -40 -26 -7 0 -27 67 -27 89 0 9 7 11 23
7 12 -3 34 -6 50 -6z m-1720 -44 c-2 -27 -28 -66 -44 -66 -7 0 -59 83 -59 95
0 3 24 5 53 3 50 -3 52 -4 50 -32z m1417 24 c30 -4 51 -8 45 -10 -25 -6 -201
3 -209 11 -12 11 84 11 164 -1z m1789 4 c62 -13 29 -19 -99 -19 -97 0 -130 3
-130 13 0 13 169 18 229 6z m-7211 -11 c-15 -2 -42 -2 -60 0 -18 2 -6 4 27 4
33 0 48 -2 33 -4z m65 0 c-7 -2 -19 -2 -25 0 -7 3 -2 5 12 5 14 0 19 -2 13 -5z
m147 -3 c0 -11 -60 -11 -105 0 -23 6 -15 8 38 9 39 1 67 -3 67 -9z m1796 3
c-10 -11 -295 -12 -302 -2 -3 5 64 9 152 9 87 0 154 -3 150 -7z m1740 0 c-10
-10 -216 -10 -216 -1 0 5 50 8 112 8 61 0 108 -3 104 -7z m276 -65 c-7 -7 -12
-8 -12 -2 0 14 12 26 19 19 2 -3 -1 -11 -7 -17z m-1735 -14 c3 -8 -4 -26 -18
-40 l-23 -25 -18 23 c-29 38 -23 58 17 58 23 0 38 -6 42 -16z m3483 -13 c0
-11 3 -27 6 -36 5 -11 0 -18 -15 -22 -26 -7 -27 -19 -3 -28 9 -3 26 -24 37
-47 11 -23 27 -44 34 -46 10 -3 11 0 2 16 -6 11 -10 33 -10 49 1 21 3 23 6 8
11 -44 43 -102 72 -129 42 -40 39 -51 -6 -27 -72 36 -167 152 -203 246 -7 19
-6 23 5 19 8 -3 22 -1 32 5 28 16 43 13 43 -8z m-1721 -22 c12 -35 -6 -122
-24 -116 -5 2 -22 25 -37 52 l-26 49 31 23 c41 29 43 29 56 -8z m-3593 9 c3
-4 16 -3 29 2 18 7 25 5 29 -7 4 -9 2 -21 -4 -27 -14 -14 -13 -39 6 -86 16
-38 41 -47 29 -10 -3 10 -1 21 4 24 5 4 13 -4 16 -16 4 -13 25 -47 46 -75 58
-77 24 -69 -63 15 -43 40 -81 89 -99 124 -16 32 -29 59 -29 62 0 6 28 1 36 -6z
m3304 -43 c0 -13 -21 -15 -127 -15 -69 0 -123 3 -120 7 4 3 46 9 94 13 146 12
153 11 153 -5z m3470 1 c0 -12 -18 -14 -87 -11 -49 1 -95 4 -103 5 -33 5 40
16 113 18 60 1 77 -1 77 -12z m-4928 -3 c-10 -4 -8 -11 9 -29 15 -16 18 -24 9
-24 -9 0 -7 -7 7 -22 25 -27 39 -68 24 -68 -12 0 -91 102 -91 118 0 12 29 32
45 31 6 0 4 -3 -3 -6z m3173 -3 c-3 -5 -23 -9 -43 -9 l-37 1 30 8 c44 11 57
11 50 0z m-118 -6 c-3 -3 -12 -4 -19 -1 -8 3 -5 6 6 6 11 1 17 -2 13 -5z
m-1232 -75 c10 -19 12 -29 4 -29 -6 0 -13 9 -16 20 -3 11 -9 20 -14 20 -22 0
0 -50 37 -89 13 -13 24 -20 24 -14 0 5 -5 14 -11 20 -6 6 -9 17 -7 24 4 11 78
-91 78 -106 0 -16 -92 45 -133 88 l-48 51 25 15 c14 9 26 22 26 29 0 19 18 5
35 -29z m-1715 -40 c0 -6 14 -27 31 -47 35 -39 27 -52 -19 -28 -41 21 -51 37
-41 64 9 23 29 31 29 11z m4780 -14 c0 -12 -14 -15 -64 -15 -35 0 -79 3 -97 8
-27 5 -13 8 61 13 52 3 96 6 98 7 1 1 2 -5 2 -13z m-6927 -12 c-7 -2 -19 -2
-25 0 -7 3 -2 5 12 5 14 0 19 -2 13 -5z m1832 -3 c-3 -5 -30 -10 -60 -10 -30
0 -57 5 -60 10 -4 6 18 10 60 10 42 0 64 -4 60 -10z m1498 3 c-7 -2 -19 -2
-25 0 -7 3 -2 5 12 5 14 0 19 -2 13 -5z m175 0 c-21 -2 -55 -2 -75 0 -21 2 -4
4 37 4 41 0 58 -2 38 -4z m1750 0 c-10 -2 -26 -2 -35 0 -10 3 -2 5 17 5 19 0
27 -2 18 -5z m-3290 -132 c9 -5 1 -10 -25 -14 -57 -10 -521 -7 -498 3 11 4 72
6 135 3 63 -2 165 0 225 5 152 13 148 13 163 3z m1716 3 c9 -3 16 -10 16 -15
0 -11 -380 -11 -435 0 -28 6 4 9 109 9 81 1 151 3 154 6 7 8 136 8 156 0z
m1751 -5 c4 -6 5 -11 4 -12 -2 -1 -112 -1 -244 1 -153 2 -234 6 -225 12 21 14
457 13 465 -1z m-5330 -9 c-109 -11 -235 -11 -235 0 0 6 56 9 153 8 126 -1
140 -2 82 -8z m6618 3 c-7 -2 -19 -2 -25 0 -7 3 -2 5 12 5 14 0 19 -2 13 -5z
m75 0 c-10 -2 -28 -2 -40 0 -13 2 -5 4 17 4 22 1 32 -1 23 -4z m-4830 -140
c61 -3 112 -10 112 -15 0 -9 -416 0 -500 12 -72 10 228 13 388 3z m1520 0
c-49 -2 -127 -2 -175 0 -49 1 -9 3 87 3 96 0 136 -2 88 -3z m1869 1 c-3 -3
-12 -4 -19 -1 -8 3 -5 6 6 6 11 1 17 -2 13 -5z m313 -15 c26 -6 17 -7 -35 -4
-38 3 -115 6 -170 6 -77 2 -90 4 -55 9 53 8 210 1 260 -11z m-5310 1 c-50 -12
-439 -15 -451 -3 -6 6 79 10 238 11 158 0 235 -2 213 -8z m3580 0 c0 -6 -64
-10 -172 -10 -116 0 -168 4 -158 10 20 13 330 13 330 0z m-1935 -117 c-54 -6
-610 -20 -619 -15 -29 16 56 22 334 20 173 -1 302 -3 285 -5z m1620 -3 c-46
-12 -503 -12 -485 0 9 6 119 9 265 9 138 -1 237 -5 220 -9z m2165 0 c-19 -12
-897 -12 -925 0 -12 5 183 9 460 9 313 1 475 -3 465 -9z m-4427 -7 c-7 -2 -19
-2 -25 0 -7 3 -2 5 12 5 14 0 19 -2 13 -5z"></path>
<path d="M6610 6210 c-24 -48 -8 -54 20 -7 22 36 25 47 10 47 -5 0 -19 -18
-30 -40z"></path>
<path d="M6230 6175 c0 -11 5 -27 10 -35 8 -12 10 -12 10 5 0 11 -5 27 -10 35
-8 12 -10 12 -10 -5z"></path>
<path d="M7030 6221 c-13 -26 -10 -63 6 -68 6 -2 17 10 24 27 11 27 11 34 -3
47 -14 14 -16 13 -27 -6z"></path>
<path d="M7725 6200 c-246 -27 -469 -205 -561 -446 -36 -93 -45 -274 -20 -386
33 -150 116 -284 235 -378 96 -77 172 -114 286 -141 162 -38 377 -11 525 67
102 53 222 181 277 296 72 150 88 282 54 438 -24 105 -53 181 -89 228 -15 20
-21 32 -13 27 17 -10 -57 72 -114 127 -48 46 -164 108 -265 141 -85 29 -208
39 -315 27z m80 -130 c-4 -6 6 -7 25 -4 19 4 30 2 30 -5 0 -6 -17 -11 -41 -11
-36 0 -40 2 -29 15 14 17 25 20 15 5z m-122 -117 c15 -29 16 -38 5 -44 -9 -6
-15 1 -21 24 -11 40 -21 51 -41 44 -12 -5 -13 -12 -4 -41 6 -20 18 -36 25 -36
8 0 11 -4 8 -10 -12 -20 -26 -9 -44 33 -23 52 -18 67 23 67 26 0 34 -7 49 -37z
m240 22 c39 -16 -1 -25 -104 -25 -105 0 -109 1 -109 22 0 20 3 21 98 15 53 -3
105 -9 115 -12z m57 -4 c0 -12 -20 -25 -27 -18 -7 7 6 27 18 27 5 0 9 -4 9 -9z
m89 -25 c9 -11 8 -15 -5 -20 -23 -9 -24 -8 -24 14 0 23 13 26 29 6z m-463 -62
c9 -13 11 -25 6 -28 -5 -3 -13 4 -17 17 -7 20 -8 18 -14 -13 -6 -33 -7 -34
-13 -10 -7 24 -3 57 10 90 4 11 7 8 10 -9 2 -14 10 -35 18 -47z m368 41 c11
-8 36 -15 55 -15 23 0 32 -3 25 -10 -6 -6 -22 -6 -45 0 -35 10 -83 39 -64 39
6 0 19 -6 29 -14z m-432 -91 c11 -23 16 -25 51 -20 21 4 153 6 293 6 160 0
254 4 254 10 0 6 -12 10 -27 10 -19 0 -24 3 -16 11 5 5 22 7 36 4 23 -6 26
-11 23 -39 -7 -57 41 -82 109 -56 40 15 21 -4 -24 -25 l-40 -18 -41 37 c-38
35 -85 47 -104 29 -4 -5 -48 -6 -97 -4 l-89 3 -1 -38 c-2 -34 -3 -35 -6 -9 -3
17 -8 33 -11 37 -4 3 -76 8 -160 9 l-153 3 -26 -37 -26 -36 -28 20 c-29 21
-37 51 -20 78 7 11 14 5 27 -28 l17 -43 20 21 c20 19 20 21 4 39 -18 19 -22
44 -10 55 14 14 34 6 45 -19z m734 -36 c10 -13 12 -17 4 -10 -8 6 -34 12 -59
12 -34 0 -42 3 -31 10 26 17 66 11 86 -12z m-26 -17 c13 -1 13 -2 0 -11 -21
-14 -56 -12 -68 3 -10 12 6 14 68 8z m-850 -111 c0 -16 -9 -44 -20 -62 l-20
-33 1 30 c3 72 39 132 39 65z m52 -31 c-9 -36 -39 -49 -34 -14 4 21 32 58 39
51 2 -2 0 -19 -5 -37z m302 12 c11 -4 15 -10 10 -13 -19 -11 -130 -18 -159 -9
l-30 8 25 7 c14 3 45 7 70 9 25 2 50 4 55 5 6 0 19 -3 29 -7z m520 -7 c10 -26
7 -64 -5 -64 -8 0 -8 -4 -1 -12 5 -7 12 -35 13 -63 4 -44 2 -50 -16 -53 -19
-3 -20 3 -20 103 0 72 4 105 11 105 7 0 15 -7 18 -16z m-425 -1 c23 -6 23 -8
17 -80 l-6 -73 29 0 c33 0 47 23 25 40 -8 8 -14 30 -14 56 0 34 5 46 21 54 27
15 49 6 49 -19 0 -11 5 -21 12 -23 8 -3 3 -20 -15 -52 -15 -27 -27 -51 -27
-53 0 -3 62 -3 138 -2 131 3 137 2 134 -17 -2 -10 -5 -20 -7 -22 -2 -2 -61 -3
-131 -3 -177 0 -214 -6 -215 -33 l-2 -21 -4 21 c-3 15 -14 24 -34 28 -41 8
-497 9 -510 1 -5 -4 -21 -4 -35 -1 -21 6 -24 12 -24 50 0 45 10 56 51 56 15 0
19 -7 19 -35 0 -19 5 -35 10 -35 6 0 10 13 10 29 0 29 21 57 33 44 4 -3 7 -21
7 -40 0 -35 19 -47 21 -13 1 11 2 23 4 28 14 51 18 62 26 62 5 0 9 -25 9 -56
l0 -56 31 6 c17 3 107 6 200 6 125 0 169 3 169 12 0 7 -14 27 -32 45 -32 33
-29 44 6 18 10 -8 23 -12 27 -9 16 10 9 32 -11 37 -11 3 -20 13 -20 22 0 11
-5 15 -14 12 -10 -4 -13 -1 -9 9 6 15 24 17 62 7z m359 -13 c2 -13 -13 -15
-103 -12 -84 3 -105 6 -105 18 0 22 203 16 208 -6z m104 -42 c-9 -9 -12 -7
-12 12 0 19 3 21 12 12 9 -9 9 -15 0 -24z m68 -38 c12 -8 9 -10 -12 -10 -21 0
-28 -5 -28 -19 0 -25 20 -38 21 -14 0 16 1 16 8 -2 8 -19 9 -18 13 5 5 25 5
25 7 -2 0 -16 6 -28 12 -28 7 0 10 14 7 35 -3 25 0 35 9 35 19 0 26 -25 19
-65 -7 -35 -7 -35 -61 -35 -30 0 -56 3 -58 8 -3 4 -3 28 0 55 5 40 9 47 27 47
11 0 28 -5 36 -10z m-1153 -87 c-3 -10 -5 -4 -5 12 0 17 2 24 5 18 2 -7 2 -21
0 -30z m264 -181 c8 -21 7 -23 -13 -17 -30 9 -30 9 -50 1 -9 -4 -27 -6 -40 -4
-20 3 -23 10 -26 49 -2 36 1 48 13 53 27 10 33 -1 28 -44 -5 -33 -3 -40 12
-40 14 0 16 8 15 43 -5 90 -1 96 26 37 14 -30 30 -65 35 -78z m777 76 c7 -7
12 -24 12 -39 0 -15 7 -32 15 -39 24 -20 14 -21 -40 -5 l-49 15 -41 -40 c-42
-41 -82 -100 -68 -100 4 0 24 4 43 10 43 12 81 -8 73 -39 -8 -31 -32 -34 -45
-6 -6 13 -15 22 -21 18 -5 -3 -4 -9 3 -13 7 -4 11 -13 9 -19 -3 -7 -18 -2 -41
14 -42 29 -58 31 -58 10 0 -8 -4 -15 -10 -15 -5 0 -10 3 -10 8 0 4 -104 7
-232 7 l-232 0 -34 60 -33 60 28 -26 c52 -49 61 -51 301 -51 l227 0 47 41 c26
23 60 65 76 94 15 29 33 51 40 50 7 -2 12 2 12 7 0 14 13 13 28 -2z m101 -22
c8 -10 9 -16 1 -21 -5 -3 -10 -14 -10 -24 0 -10 -6 -24 -14 -30 -10 -9 -17 -6
-30 13 -9 14 -16 37 -16 51 0 21 5 25 29 25 16 0 34 -6 40 -14z m-260 -21 c77
-12 24 -25 -106 -25 -109 0 -123 -2 -123 -17 0 -15 -1 -15 -13 1 -12 17 -29
18 -174 17 -103 -1 -164 2 -168 9 -3 5 -5 11 -3 12 4 3 510 14 528 11 8 -1 35
-5 59 -8z m-563 -176 c18 -20 18 -21 -1 -35 -26 -19 -42 -18 -55 7 -9 15 -8
24 1 35 16 20 33 18 55 -7z m560 -34 c10 -8 14 -15 8 -15 -5 0 -19 7 -30 15
-10 8 -14 15 -8 15 5 0 19 -7 30 -15z m-237 -117 c1 -29 -3 -38 -15 -38 -14 0
-16 8 -10 53 3 28 6 66 7 82 1 24 3 21 10 -15 4 -25 8 -62 8 -82z m-69 -15 c0
-18 -35 -16 -54 3 -26 25 -19 33 19 21 19 -6 35 -16 35 -24z"></path>
<path d="M7928 5604 c-13 -13 -14 -22 -6 -40 16 -35 25 -29 30 16 4 44 0 48
-24 24z"></path>
<path d="M7278 5500 c-3 -20 0 -30 9 -30 8 0 13 12 13 30 0 17 -4 30 -9 30 -5
0 -11 -13 -13 -30z"></path>
<path d="M8235 5326 c-5 -12 -3 -21 6 -27 19 -12 29 -11 29 1 0 6 -4 10 -9 10
-5 0 -11 8 -14 18 -4 16 -4 16 -12 -2z"></path>
<path d="M8174 5137 c3 -10 6 -24 6 -30 0 -8 4 -7 12 1 10 10 8 16 -6 30 -18
16 -19 16 -12 -1z"></path>
<path d="M8326 5322 c-2 -4 -1 -14 3 -21 6 -10 10 -9 14 3 6 16 -8 32 -17 18z"></path>
<path d="M3365 6016 c76 -35 108 -40 40 -6 -33 16 -67 29 -75 29 -8 0 8 -11
35 -23z"></path>
<path d="M3540 5930 c36 -32 62 -41 39 -14 -7 8 -26 22 -43 30 l-31 15 35 -31z"></path>
<path d="M6420 5970 c-13 -8 -13 -10 2 -10 22 0 32 -38 25 -97 l-5 -46 52 7
c28 3 93 6 145 6 79 0 92 2 87 15 -3 8 -9 22 -12 30 -5 12 2 15 27 15 26 0 30
3 19 10 -8 5 -26 10 -39 10 -20 0 -22 4 -17 25 6 24 5 25 -51 26 -32 1 -88 1
-124 -1 -40 -1 -69 2 -73 9 -9 13 -16 14 -36 1z"></path>
<path d="M6300 5961 c0 -5 7 -14 15 -21 11 -9 12 -16 4 -26 -7 -9 -6 -21 6
-43 15 -30 15 -31 -5 -31 -32 0 -23 -17 13 -23 43 -7 52 5 34 41 -18 37 -11
83 14 89 37 10 18 23 -31 23 -27 0 -50 -4 -50 -9z"></path>
<path d="M6776 5948 c10 -32 7 -79 -5 -91 -16 -16 -13 -47 4 -47 8 0 19 8 24
18 12 23 17 94 8 109 -14 22 12 23 27 2 10 -16 12 -28 5 -46 -14 -39 -9 -62 6
-28 29 62 10 105 -46 105 -27 0 -30 -3 -23 -22z"></path>
<path d="M5867 5923 c-4 -3 -7 -24 -7 -45 0 -32 3 -38 21 -38 19 0 21 4 16 37
-7 39 -19 58 -30 46z"></path>
<path d="M6388 5917 c-12 -9 -13 -18 -7 -30 8 -14 13 -15 29 -4 22 13 27 47 8
47 -7 0 -20 -6 -30 -13z"></path>
<path d="M5496 5914 c-4 -10 -1 -21 6 -25 16 -10 25 18 10 33 -6 6 -12 3 -16
-8z"></path>
<path d="M5735 5910 c-4 -7 -3 -15 2 -19 5 -3 10 -17 10 -30 3 -45 26 -41 26
4 0 32 -27 63 -38 45z"></path>
<path d="M5500 5835 c-7 -9 -8 -15 -2 -15 5 0 12 7 16 15 3 8 4 15 2 15 -2 0
-9 -7 -16 -15z"></path>
<path d="M3073 5645 c0 -8 4 -12 9 -9 4 3 8 9 8 15 0 5 -4 9 -8 9 -5 0 -9 -7
-9 -15z"></path>
<path d="M2975 5641 c-3 -5 -1 -12 5 -16 5 -3 10 1 10 9 0 18 -6 21 -15 7z"></path>
<path d="M3463 5700 c0 -41 2 -58 4 -37 2 20 2 54 0 75 -2 20 -4 3 -4 -38z"></path>
<path d="M2493 5755 c0 -8 4 -15 9 -15 4 0 8 7 8 15 0 8 -4 15 -8 15 -5 0 -9
-7 -9 -15z"></path>
<path d="M2546 5654 c-15 -14 -22 -34 -12 -34 2 0 11 11 20 25 19 28 15 33 -8
9z"></path>
<path d="M2560 5630 c0 -13 11 -13 30 0 12 8 11 10 -7 10 -13 0 -23 -4 -23
-10z"></path>
<path d="M2993 5473 l-53 -4 0 -70 c0 -63 3 -72 26 -94 54 -50 134 -21 134 49
0 18 3 47 6 63 7 33 -16 64 -44 61 -9 -1 -41 -3 -69 -5z m61 -58 c-4 -9 1 -18
11 -21 13 -5 14 -9 4 -15 -20 -12 -29 -1 -29 32 0 17 4 28 10 24 5 -3 7 -12 4
-20z m-54 -5 c0 -11 -4 -20 -10 -20 -5 0 -10 9 -10 20 0 11 5 20 10 20 6 0 10
-9 10 -20z m14 -72 c6 -4 16 -2 23 4 9 7 13 7 13 -1 0 -18 -29 -25 -45 -11 -8
7 -15 20 -14 29 0 13 2 14 6 1 3 -8 11 -18 17 -22z"></path>
<path d="M2730 5213 c-12 -3 -16 -21 -18 -78 -2 -65 1 -77 22 -102 29 -34 92
-39 125 -9 18 17 21 31 21 107 l0 87 -67 0 c-38 -1 -75 -3 -83 -5z m110 -45
c0 -7 -5 -20 -10 -28 -8 -12 -10 -9 -10 13 0 15 5 27 10 27 6 0 10 -6 10 -12z
m-33 -35 c-3 -10 -5 -4 -5 12 0 17 2 24 5 18 2 -7 2 -21 0 -30z m23 -52 c0 -9
-41 -23 -49 -16 -3 4 28 20 47 24 1 1 2 -3 2 -8z"></path>
<path d="M2953 5213 c-9 -3 -13 -29 -13 -78 0 -70 1 -74 32 -100 37 -31 71
-28 106 11 23 26 29 78 16 143 -6 26 -11 31 -35 31 -16 0 -29 -5 -29 -12 0 -9
-3 -9 -12 0 -12 12 -43 15 -65 5z m42 -43 c3 -5 -1 -10 -10 -10 -9 0 -13 5
-10 10 3 6 8 10 10 10 2 0 7 -4 10 -10z m52 -6 c-3 -3 -12 -4 -19 -1 -8 3 -5
6 6 6 11 1 17 -2 13 -5z m13 -35 c0 -5 -7 -9 -15 -9 -8 0 -15 7 -15 15 0 9 6
12 15 9 8 -4 15 -10 15 -15z m-60 1 c0 -5 -4 -10 -10 -10 -5 0 -10 5 -10 10 0
6 5 10 10 10 6 0 10 -4 10 -10z m-10 -45 c11 -13 10 -14 -4 -9 -9 3 -16 10
-16 15 0 13 6 11 20 -6z"></path>
<path d="M3170 5211 c-12 -7 -14 -25 -10 -89 6 -94 23 -122 77 -122 49 0 70
27 78 102 12 110 10 113 -65 115 -36 2 -72 -1 -80 -6z m110 -50 c0 -11 -4 -22
-9 -25 -11 -7 -20 14 -13 32 7 19 22 14 22 -7z m-36 -100 c-6 -6 -24 19 -24
34 1 6 7 1 15 -9 8 -11 12 -22 9 -25z"></path>
<path d="M2938 4893 c-5 -74 6 -102 47 -129 28 -18 61 -14 95 14 20 16 24 31
28 100 l5 82 -51 0 c-30 0 -53 -5 -56 -12 -5 -10 -7 -10 -12 0 -3 6 -16 12
-29 12 -22 0 -24 -5 -27 -67z m59 -5 c-3 -7 -5 -2 -5 12 0 14 2 19 5 13 2 -7
2 -19 0 -25z m70 -5 c-9 -9 -20 -13 -24 -9 -4 4 1 14 11 22 25 18 35 8 13 -13z
m-44 -63 c16 0 18 -3 9 -12 -13 -13 -43 6 -41 26 0 7 2 6 6 -1 2 -7 14 -13 26
-13z"></path>
<path d="M2091 5414 c0 -11 3 -14 6 -6 3 7 2 16 -1 19 -3 4 -6 -2 -5 -13z"></path>
<path d="M6736 5385 c-3 -9 -6 -24 -5 -33 0 -9 5 -4 10 12 9 32 6 48 -5 21z"></path>
<path d="M6406 5374 c-6 -16 8 -33 27 -34 12 0 4 43 -9 47 -6 2 -14 -4 -18
-13z"></path>
<path d="M6721 5304 c0 -11 3 -14 6 -6 3 7 2 16 -1 19 -3 4 -6 -2 -5 -13z"></path>
<path d="M6402 5298 c7 -19 35 -21 41 -3 5 11 0 15 -19 15 -16 0 -24 -5 -22
-12z"></path>
<path d="M5832 5358 c-19 -19 -14 -28 14 -28 18 0 25 5 22 17 -4 21 -21 26
-36 11z"></path>
<path d="M5827 5303 c-10 -9 -9 -23 1 -23 5 0 17 7 28 15 19 14 19 14 -2 15
-11 0 -24 -3 -27 -7z"></path>
<path d="M5937 5359 c-4 -15 -2 -19 10 -15 8 3 17 6 19 6 2 0 4 7 4 15 0 23
-27 18 -33 -6z"></path>
<path d="M5946 5311 c-12 -13 -14 -21 -6 -26 18 -11 40 3 40 25 0 25 -12 26
-34 1z"></path>
<path d="M5371 5351 c-11 -7 -9 -10 8 -16 25 -8 36 -2 26 14 -8 13 -15 14 -34
2z"></path>
<path d="M5370 5290 c0 -5 7 -10 15 -10 8 0 15 5 15 10 0 6 -7 10 -15 10 -8 0
-15 -4 -15 -10z"></path>
<path d="M5470 5345 c-11 -13 -9 -15 15 -15 16 0 25 5 23 12 -7 19 -24 20 -38
3z"></path>
<path d="M2540 5223 c0 -10 5 -25 10 -33 8 -12 10 -9 10 12 0 15 -4 30 -10 33
-5 3 -10 -2 -10 -12z"></path>
<path d="M5917 4963 c-7 -12 -1 -142 6 -150 4 -3 7 30 7 75 0 77 -3 92 -13 75z"></path>
<path d="M6780 4952 c0 -5 7 -15 15 -22 8 -7 15 -8 15 -2 0 5 -7 15 -15 22 -8
7 -15 8 -15 2z"></path>
<path d="M6948 4938 c-25 -19 -13 -70 15 -66 28 4 34 28 8 28 -12 0 -21 6 -21
15 0 8 9 15 20 15 11 0 20 -4 20 -10 0 -5 5 -10 10 -10 6 0 5 8 -2 20 -15 23
-28 25 -50 8z"></path>
<path d="M6955 4840 c-19 -8 -19 -9 2 -9 12 -1 25 4 28 9 7 12 -2 12 -30 0z"></path>
<path d="M3972 4970 c0 -14 2 -19 5 -12 2 6 2 18 0 25 -3 6 -5 1 -5 -13z"></path>
<path d="M3951 4859 c-7 -24 -24 -65 -37 -91 -26 -51 -32 -85 -10 -53 18 26
68 165 63 178 -1 5 -9 -10 -16 -34z"></path>
<path d="M6522 4438 c6 -18 28 -21 28 -4 0 9 -7 16 -16 16 -9 0 -14 -5 -12
-12z"></path>
<path d="M2306 4593 c-11 -11 -6 -23 9 -23 8 0 15 4 15 9 0 13 -16 22 -24 14z"></path>
<path d="M6130 4440 c0 -5 9 -10 19 -10 11 0 23 5 26 10 4 6 -5 10 -19 10 -14
0 -26 -4 -26 -10z"></path>
<path d="M5610 4401 c0 -11 40 -22 52 -15 5 3 6 10 3 15 -8 12 -55 12 -55 0z"></path>
<path d="M3555 4345 c-21 -19 -54 -36 -72 -40 -18 -3 -33 -10 -33 -15 0 -12 5
-12 28 -1 9 5 28 14 42 20 32 16 86 59 80 65 -3 2 -23 -11 -45 -29z"></path>
<path d="M2435 4510 c19 -8 73 -14 64 -6 -2 2 -22 6 -44 9 -28 5 -34 4 -20 -3z"></path>
<path d="M2510 4495 c0 -2 18 -9 41 -15 22 -6 48 -13 57 -16 9 -2 -1 5 -23 16
-37 18 -75 26 -75 15z"></path>
<path d="M2798 4153 c7 -3 16 -2 19 1 4 3 -2 6 -13 5 -11 0 -14 -3 -6 -6z"></path>
<path d="M2858 4143 c6 -2 18 -2 25 0 6 3 1 5 -13 5 -14 0 -19 -2 -12 -5z"></path>
<path d="M8227 4266 c-49 -18 -104 -61 -128 -100 -27 -45 -26 -149 2 -196 50
-82 109 -120 189 -120 163 0 282 171 212 306 -53 102 -167 148 -275 110z m126
-37 c51 -14 102 -61 122 -113 23 -60 8 -114 -48 -169 -49 -49 -104 -72 -152
-63 -47 9 -111 59 -135 105 -22 45 -26 115 -7 147 18 32 73 75 115 90 46 16
57 17 105 3z"></path>
<path d="M6673 4005 c0 -22 2 -30 4 -17 2 12 2 30 0 40 -3 9 -5 -1 -4 -23z"></path>
<path d="M6107 3373 c-13 -12 -7 -68 9 -91 18 -26 39 -30 25 -4 -12 22 -25 73
-22 90 2 13 -2 15 -12 5z"></path>
<path d="M2566 3324 c-3 -8 -1 -24 4 -35 14 -24 20 -24 13 0 -3 10 0 22 6 25
16 10 14 26 -3 26 -8 0 -17 -7 -20 -16z"></path>
<path d="M4391 3341 c-14 -26 -14 -27 9 -27 24 0 33 21 15 36 -11 9 -16 7 -24
-9z"></path>
<path d="M7840 3341 c0 -5 -3 -18 -7 -28 -6 -15 -4 -16 9 -6 8 7 18 10 21 6 4
-3 7 3 7 15 0 13 -6 22 -15 22 -8 0 -15 -4 -15 -9z"></path>
<path d="M7830 3280 c0 -5 4 -10 9 -10 6 0 13 5 16 10 3 6 -1 10 -9 10 -9 0
-16 -4 -16 -10z"></path>
<path d="M1970 3065 c0 -8 9 -15 20 -15 11 0 20 7 20 15 0 8 -9 15 -20 15 -11
0 -20 -7 -20 -15z"></path>
<path d="M4225 3081 c-6 -11 9 -23 19 -14 9 9 7 23 -3 23 -6 0 -12 -4 -16 -9z"></path>
<path d="M4015 2930 l-30 -7 28 -8 c17 -4 33 -3 39 3 14 14 -2 20 -37 12z"></path>
<path d="M3950 2845 c0 -8 7 -15 15 -15 8 0 15 4 15 9 0 5 -7 11 -15 15 -9 3
-15 0 -15 -9z"></path>
<path d="M5856 3014 c-4 -9 -4 -19 -1 -22 3 -3 5 -1 5 5 0 6 9 9 20 6 16 -4
19 -2 14 11 -8 21 -30 21 -38 0z"></path>
<path d="M5695 2840 c3 -5 8 -10 11 -10 2 0 4 5 4 10 0 6 -5 10 -11 10 -5 0
-7 -4 -4 -10z"></path>
<path d="M6345 3050 c21 -16 44 -30 52 -30 9 0 12 -7 7 -25 -6 -24 -5 -25 21
-15 24 9 26 8 20 -10 -8 -24 7 -26 26 -4 16 19 -3 35 -92 84 -72 38 -82 38
-34 0z"></path>
<path d="M6486 2935 c-9 -14 -13 -25 -9 -25 14 1 43 27 43 39 0 19 -17 12 -34
-14z"></path>
<path d="M6507 2913 c-4 -3 -7 -11 -7 -17 0 -6 5 -5 12 2 6 6 9 14 7 17 -3 3
-9 2 -12 -2z"></path>
<path d="M8454 3104 c3 -9 6 -20 6 -25 0 -21 16 -7 18 16 1 17 -3 25 -14 25
-11 0 -14 -5 -10 -16z"></path>
<path d="M2351 3014 c0 -11 3 -14 6 -6 3 7 2 16 -1 19 -3 4 -6 -2 -5 -13z"></path>
<path d="M2200 2911 c0 -16 5 -33 10 -36 6 -4 10 6 10 24 0 16 -4 33 -10 36
-6 4 -10 -6 -10 -24z"></path>
<path d="M2738 3073 c7 -3 16 -2 19 1 4 3 -2 6 -13 5 -11 0 -14 -3 -6 -6z"></path>
<path d="M3780 3081 c-17 -33 -11 -47 10 -21 11 14 20 28 20 33 0 14 -20 7
-30 -12z"></path>
<path d="M5026 3105 c-10 -28 -7 -46 13 -71 15 -19 20 -21 25 -9 3 9 0 15 -9
15 -19 0 -20 26 -1 33 19 7 14 41 -6 45 -9 2 -18 -4 -22 -13z m24 -15 c0 -5
-5 -10 -11 -10 -5 0 -7 5 -4 10 3 6 8 10 11 10 2 0 4 -4 4 -10z"></path>
<path d="M6715 3090 c-22 -25 -10 -55 21 -55 15 0 19 6 17 29 -3 41 -16 50
-38 26z m30 -20 c3 -5 -3 -10 -15 -10 -12 0 -18 5 -15 10 3 6 10 10 15 10 5 0
12 -4 15 -10z"></path>
<path d="M7227 3093 c-4 -3 -7 -20 -7 -36 0 -28 11 -31 16 -4 1 7 5 20 9 30 7
17 -5 24 -18 10z"></path>
<path d="M8080 3031 c41 -27 92 -67 112 -88 28 -31 44 -40 63 -37 15 1 29 4
31 7 11 11 -236 167 -265 167 -9 0 18 -22 59 -49z"></path>
<path d="M8281 2844 c13 -16 29 -19 29 -5 0 5 -9 11 -21 14 -16 4 -18 3 -8 -9z"></path>
<path d="M2928 2923 c7 -3 16 -2 19 1 4 3 -2 6 -13 5 -11 0 -14 -3 -6 -6z"></path>
<path d="M2992 2918 c-7 -7 -12 -21 -12 -32 0 -20 2 -19 20 4 11 14 20 28 20
33 0 11 -15 8 -28 -5z"></path>
<path d="M3056 2835 c-3 -8 -1 -15 4 -15 6 0 10 7 10 15 0 8 -2 15 -4 15 -2 0
-6 -7 -10 -15z"></path>
<path d="M2503 2910 c-97 -20 -200 -101 -249 -197 -27 -53 -29 -67 -29 -163 0
-123 12 -152 96 -244 120 -131 267 -160 424 -82 83 41 146 100 183 170 24 46
27 61 27 156 -1 99 -3 109 -33 168 -58 111 -135 169 -257 191 -66 12 -101 12
-162 1z m222 -74 c70 -32 120 -78 149 -139 35 -71 43 -135 22 -173 l-16 -29 2
37 c1 20 -1 40 -5 44 -4 4 -7 -7 -7 -24 0 -38 -15 -42 -24 -8 -6 25 -31 40
-48 30 -6 -4 -8 -24 -5 -49 6 -37 2 -49 -24 -84 -28 -40 -28 -41 -5 -26 13 9
31 30 41 48 16 32 16 32 12 4 -2 -15 0 -30 4 -33 5 -3 9 -10 9 -17 0 -6 -7 -2
-15 9 -13 17 -14 17 -15 2 0 -10 -5 -18 -11 -18 -5 0 -7 -5 -3 -11 5 -8 9 -8
14 1 4 7 10 8 13 3 3 -5 -3 -25 -14 -44 l-20 -34 26 30 c14 17 32 52 41 78 9
27 18 47 20 44 2 -2 -8 -38 -22 -80 -18 -55 -31 -78 -46 -83 -12 -3 -24 -1
-28 6 -6 9 -21 10 -63 3 -31 -6 -54 -7 -52 -3 3 4 22 10 44 14 22 3 43 11 47
18 7 11 -29 8 -96 -7 -14 -3 -2 3 25 14 54 21 52 23 -10 22 -35 -1 -37 0 -17
9 13 6 28 8 32 5 15 -9 4 24 -15 45 -14 16 -20 17 -27 8 -6 -10 -8 -9 -8 3 0
9 -8 23 -17 32 -17 15 -18 13 -19 -29 -1 -43 0 -45 23 -40 23 6 33 -9 11 -17
-10 -3 -10 -8 1 -21 13 -16 11 -17 -35 -17 -85 1 -124 -3 -116 -11 4 -4 20 -9
35 -10 14 -1 29 -8 32 -16 3 -7 10 -10 16 -6 8 4 9 3 5 -5 -4 -6 -13 -8 -19
-4 -7 4 -39 17 -71 28 -33 11 -61 27 -62 35 -9 47 -30 110 -38 110 -7 0 15
-84 26 -97 6 -8 7 -13 0 -13 -15 0 -32 25 -58 87 -19 48 -24 53 -24 29 0 -40
45 -119 81 -140 16 -10 48 -23 72 -31 l42 -13 -33 -1 c-18 -1 -45 5 -61 13
-61 32 -141 149 -156 227 -15 83 60 223 151 280 86 53 213 59 309 15z m103
-316 l12 -35 -20 24 c-11 13 -20 33 -20 44 0 28 14 11 28 -33z m-208 -90 c0
-5 -4 -10 -10 -10 -5 0 -10 5 -10 10 0 6 5 10 10 10 6 0 10 -4 10 -10z m45
-10 c3 -5 1 -10 -4 -10 -6 0 -11 5 -11 10 0 6 2 10 4 10 3 0 8 -4 11 -10z
m-45 -97 c0 -12 -3 -14 -8 -6 -4 6 -21 13 -37 16 -27 4 -27 4 8 6 29 1 37 -3
37 -16z m63 -40 c-7 -2 -19 -2 -25 0 -7 3 -2 5 12 5 14 0 19 -2 13 -5z"></path>
<path d="M2851 2564 c0 -11 3 -14 6 -6 3 7 2 16 -1 19 -3 4 -6 -2 -5 -13z"></path>
<path d="M2745 2560 c-17 -7 -17 -9 -2 -9 9 -1 17 -9 17 -18 0 -10 4 -24 9
-32 5 -8 8 2 7 28 -1 44 -1 44 -31 31z"></path>
<path d="M2717 2513 c3 -7 9 -10 14 -7 5 3 14 -7 19 -22 6 -15 13 -24 16 -21
9 9 -24 64 -39 64 -9 0 -13 -6 -10 -14z"></path>
<path d="M2721 2454 c0 -11 3 -14 6 -6 3 7 2 16 -1 19 -3 4 -6 -2 -5 -13z"></path>
<path d="M2580 2385 c0 -8 7 -15 15 -15 8 0 15 4 15 9 0 5 -7 11 -15 15 -9 3
-15 0 -15 -9z"></path>
<path d="M2769 2363 c-13 -16 -12 -17 4 -4 16 13 21 21 13 21 -2 0 -10 -8 -17
-17z"></path>
<path d="M2430 2366 c0 -2 7 -6 15 -10 8 -3 15 -1 15 4 0 6 -7 10 -15 10 -8 0
-15 -2 -15 -4z"></path>
<path d="M4311 2905 c-134 -30 -212 -89 -263 -201 -19 -41 -23 -66 -23 -149 0
-87 3 -107 26 -155 40 -85 100 -145 182 -184 40 -19 91 -37 114 -41 117 -19
339 107 393 222 31 66 39 189 16 266 -18 62 -81 147 -135 184 -86 58 -207 80
-310 58z m184 -57 c53 -20 145 -88 174 -129 46 -62 55 -121 35 -210 -9 -41
-21 -81 -26 -89 -7 -12 -8 -10 -4 5 19 74 26 122 21 142 -9 38 -23 26 -31 -24
-7 -53 -29 -103 -44 -103 -6 0 -10 5 -10 11 0 5 5 7 12 3 8 -5 9 -2 5 10 -4
10 -7 41 -8 69 l-1 52 -9 -44 c-5 -24 -6 -48 -3 -52 3 -5 -6 -32 -20 -60 l-26
-50 27 21 c23 18 28 19 35 5 10 -16 2 -38 -11 -31 -4 3 -13 -5 -20 -16 l-13
-21 29 20 c62 43 63 42 21 -19 -18 -26 -58 -39 -58 -19 0 19 -45 19 -81 0 -22
-11 -39 -17 -39 -14 0 2 14 12 32 21 36 18 77 54 62 54 -5 0 -21 -8 -34 -17
-25 -16 -25 -16 -7 3 22 26 22 34 -2 34 -25 0 -52 -26 -45 -44 3 -7 -2 -16
-10 -19 -19 -7 -22 9 -3 17 6 4 -4 4 -23 2 l-35 -5 34 15 c18 8 31 17 28 20
-8 8 -62 -20 -58 -30 1 -5 -3 -12 -9 -16 -8 -5 -7 -9 4 -13 9 -4 16 -2 16 3 0
6 5 10 11 10 8 0 7 -5 -1 -15 -7 -9 -15 -13 -17 -11 -3 2 -18 0 -34 -6 -25 -9
-38 -6 -85 18 -50 25 -55 30 -49 53 4 20 3 22 -4 11 -13 -20 -38 -5 -68 40
-15 21 -23 27 -23 17 0 -27 66 -93 127 -127 67 -38 64 -49 -6 -19 -55 23 -115
83 -159 158 -75 129 22 332 185 385 87 27 153 29 218 4z m41 -537 c-6 -9 -46
-22 -46 -15 0 3 10 9 23 14 29 11 29 11 23 1z"></path>
<path d="M4641 2580 c-1 -3 -4 -27 -7 -55 -3 -41 -2 -46 6 -25 6 13 9 38 7 55
-2 16 -5 28 -6 25z"></path>
<path d="M4578 2510 c-1 -28 0 -50 5 -50 4 0 7 12 7 28 0 15 3 37 6 50 4 12 2
22 -4 22 -5 0 -12 -23 -14 -50z"></path>
<path d="M4536 2513 c4 -51 14 -84 25 -77 5 3 7 10 3 15 -3 5 -7 23 -9 39 -6
48 -22 67 -19 23z"></path>
<path d="M4557 2530 c3 -11 7 -20 9 -20 2 0 4 9 4 20 0 11 -4 20 -9 20 -5 0
-7 -9 -4 -20z"></path>
<path d="M4419 2492 c7 -12 9 -26 6 -31 -3 -5 1 -12 7 -14 8 -3 6 -6 -5 -6
-10 -1 -15 -6 -12 -12 4 -5 21 -8 38 -5 29 5 29 4 -5 -7 -20 -7 -39 -15 -43
-18 -9 -10 67 1 88 13 16 8 16 10 2 24 -9 9 -22 13 -31 10 -8 -3 -12 -2 -9 4
3 5 -6 22 -21 37 -23 24 -25 25 -15 5z"></path>
<path d="M4120 2491 c0 -5 12 -17 28 -26 l27 -18 -24 27 c-26 28 -31 31 -31
17z"></path>
<path d="M4182 2424 c10 -10 20 -16 22 -13 3 3 -5 11 -17 18 -21 13 -21 12 -5
-5z"></path>
<path d="M4245 2370 c-3 -5 -1 -10 4 -10 6 0 11 5 11 10 0 6 -2 10 -4 10 -3 0
-8 -4 -11 -10z"></path>
<path d="M4310 2336 c0 -8 7 -17 16 -20 23 -9 24 -4 2 17 -14 13 -18 14 -18 3z"></path>
<path d="M6068 2908 c-91 -12 -151 -43 -217 -113 -77 -83 -95 -134 -89 -259 3
-63 11 -105 25 -136 30 -67 107 -147 177 -183 54 -28 70 -32 141 -31 94 1 176
30 257 91 95 73 134 165 126 298 -14 211 -203 361 -420 333z m178 -72 c92 -43
158 -118 183 -210 8 -29 6 -54 -5 -105 -9 -36 -17 -67 -19 -69 -2 -2 -1 25 1
60 l4 63 -15 -35 c-11 -25 -14 -28 -11 -10 3 14 1 31 -3 39 -6 10 -11 4 -16
-20 -7 -29 -9 -31 -16 -14 -11 29 -10 42 2 25 7 -10 9 -11 7 -2 -6 24 -23 11
-21 -16 2 -21 0 -23 -7 -12 -7 11 -10 6 -11 -20 -1 -28 -3 -30 -6 -10 -3 14
-8 29 -13 34 -5 5 -4 -9 0 -30 5 -22 7 -47 4 -58 -4 -11 -2 -16 4 -12 6 3 13
20 17 36 4 16 11 32 15 35 5 3 3 -16 -5 -42 -18 -60 -18 -58 2 -42 17 15 17
12 -3 -66 -4 -16 -3 -17 5 -5 6 8 11 23 11 33 0 9 5 17 11 17 16 0 3 -59 -18
-82 -22 -24 -37 -23 -30 3 4 16 3 18 -9 8 -20 -17 -19 14 3 49 13 21 9 19 -15
-8 l-32 -35 10 29 c6 16 9 31 6 33 -2 3 -7 -5 -11 -16 -3 -12 -11 -19 -16 -15
-6 3 -18 0 -27 -7 -13 -10 -12 -8 2 9 30 34 14 35 -27 1 -20 -17 -37 -28 -37
-24 0 5 -12 -3 -45 -32 -16 -15 -29 -17 -20 -3 3 6 1 10 -4 10 -6 0 -11 -7
-11 -15 0 -18 -4 -18 -70 -4 -41 9 -62 22 -104 63 -75 73 -100 125 -100 206 0
80 25 138 87 198 91 89 244 119 353 68z m131 -358 c-3 -8 -6 -5 -6 6 -1 11 2
17 5 13 3 -3 4 -12 1 -19z m-179 -175 c-10 -2 -26 -2 -35 0 -10 3 -2 5 17 5
19 0 27 -2 18 -5z"></path>
<path d="M6283 2560 c-13 -5 -23 -14 -23 -20 0 -6 10 -4 23 5 13 8 27 12 30 8
4 -3 7 -1 7 5 0 14 -7 14 -37 2z"></path>
<path d="M6135 2464 c13 -43 13 -46 -8 -54 -22 -9 -22 -9 1 -9 22 -1 22 -2 7
-17 -21 -22 -12 -30 12 -10 10 9 26 22 37 29 16 12 17 17 6 36 -15 29 -51 71
-61 71 -5 0 -2 -21 6 -46z"></path>
<path d="M5857 2465 c14 -43 52 -92 92 -119 39 -27 121 -52 121 -36 0 4 -19
10 -42 14 -42 7 -101 57 -156 131 -14 19 -19 22 -15 10z"></path>
<path d="M5920 2422 c25 -38 75 -77 110 -86 15 -4 9 2 -15 15 -22 12 -57 40
-78 63 -33 35 -35 36 -17 8z"></path>
<path d="M6195 2394 c-22 -19 -31 -30 -20 -25 27 14 69 51 64 56 -3 2 -22 -12
-44 -31z"></path>
<path d="M6100 2340 l-25 -8 27 -1 c15 -1 30 4 33 9 7 11 0 11 -35 0z"></path>
<path d="M7751 2894 c-94 -34 -183 -111 -224 -194 -18 -37 -22 -62 -22 -145 0
-87 3 -107 26 -155 69 -148 261 -252 403 -219 86 20 196 84 244 142 92 112
108 252 42 376 -43 81 -110 147 -180 180 -71 32 -220 40 -289 15z m219 -46
c122 -36 230 -160 230 -263 0 -44 -20 -118 -44 -162 -21 -38 -20 -28 3 32 23
60 30 105 16 102 -5 0 -15 -16 -22 -35 -6 -18 -15 -37 -19 -40 -4 -4 -4 2 1
13 14 36 17 73 6 79 -6 4 -11 0 -11 -10 0 -16 -1 -16 -14 2 -13 17 -15 13 -15
-43 1 -81 -35 -151 -92 -181 -21 -12 -39 -17 -39 -11 0 5 3 9 8 9 4 0 21 12
37 26 27 22 27 24 5 13 l-25 -12 19 22 c17 18 17 21 3 15 -12 -4 -17 -1 -18
12 0 17 -1 17 -8 -1 -5 -11 -7 -23 -4 -27 2 -5 -3 -8 -12 -8 -9 0 -13 5 -10
10 9 14 -8 13 -23 -2 -9 -9 -9 -4 -2 22 10 35 -3 66 -23 53 -5 -3 -7 -1 -4 4
4 6 -3 19 -14 29 -20 18 -20 18 -14 -11 4 -17 8 -36 11 -43 2 -7 0 -11 -5 -8
-5 3 -12 -1 -15 -10 -5 -12 -1 -14 17 -10 15 4 13 1 -5 -6 -29 -12 -40 -35
-13 -24 24 9 17 -4 -7 -14 -20 -9 -19 -10 10 -7 37 4 30 -9 -8 -16 -14 -2 -9
-3 10 -2 19 2 44 6 55 10 20 7 20 6 1 -9 -11 -9 -34 -16 -50 -16 -23 0 -27 -3
-17 -9 27 -17 -37 -25 -82 -10 -41 12 -139 100 -180 159 -17 24 -17 24 -1 -10
27 -58 112 -138 166 -156 59 -19 62 -29 7 -20 -54 9 -118 54 -162 113 -61 84
-70 110 -65 182 6 79 31 131 90 187 95 92 204 119 328 82z m-30 -408 c0 -5 -2
-10 -4 -10 -3 0 -8 5 -11 10 -3 6 -1 10 4 10 6 0 11 -4 11 -10z m155 -30 c-3
-5 -1 -10 4 -10 6 0 11 -6 11 -14 0 -8 5 -16 11 -18 8 -3 8 -10 -2 -26 -16
-26 -51 -40 -57 -23 -5 15 -22 14 -22 -2 0 -7 -9 -13 -20 -14 -27 -2 -25 4 10
34 17 14 37 38 46 54 8 16 17 29 20 29 3 0 2 -4 -1 -10z m-155 -95 c-7 -9 -15
-13 -19 -10 -3 3 1 10 9 15 21 14 24 12 10 -5z"></path>
<path d="M8025 2544 c-9 -9 -13 -19 -10 -23 4 -3 14 3 22 14 15 19 15 19 10
-5 -6 -24 -5 -24 8 -6 8 11 15 23 15 28 0 14 -28 9 -45 -8z"></path>
<path d="M8077 2530 c-13 -69 -15 -75 -22 -95 l-7 -20 14 20 c23 31 35 77 28
105 -6 24 -7 23 -13 -10z"></path>
<path d="M8030 2486 c0 -8 4 -17 9 -20 5 -4 7 3 4 14 -6 23 -13 26 -13 6z"></path>
<path d="M7670 2416 c0 -2 8 -10 18 -17 15 -13 16 -12 3 4 -13 16 -21 21 -21
13z"></path>
<path d="M7727 2359 c12 -12 24 -21 27 -18 2 2 -8 13 -22 23 l-27 19 22 -24z"></path>
<path d="M8155 1590 c3 -5 11 -10 16 -10 6 0 7 5 4 10 -3 6 -11 10 -16 10 -6
0 -7 -4 -4 -10z"></path>
<path d="M8238 1593 c12 -2 30 -2 40 0 9 3 -1 5 -23 4 -22 0 -30 -2 -17 -4z"></path>
<path d="M3190 1540 c-10 -7 18 -10 88 -10 61 0 102 4 102 10 0 13 -170 13
-190 0z"></path>
</g>
</svg></svg></g></svg>